<svg width="746" height="455" viewBox="0 0 746 455" fill="none" xmlns="http://www.w3.org/2000/svg">
<path d="M377.917 127.883C371.266 117.778 363.384 106.988 351.04 103.689C336.745 99.8678 322.06 107.459 309.604 114.949C272.354 137.351 236.481 161.628 202.151 187.669L202.188 188.061C228.916 186.368 255.644 184.675 282.372 182.982C301.683 181.759 321.657 180.367 338.722 171.976C345.198 168.792 351.511 164.539 358.849 164.242C367.966 163.874 375.915 169.723 382.162 175.833C419.116 211.977 429.81 267.251 471.268 299.006C445.126 239.788 413.911 182.567 377.917 127.883Z" fill="#F2F2F2"/>
<path d="M605.066 434.453C600.98 429.713 599.31 428.603 595.279 423.819C562.458 384.828 531.608 344.52 502.73 302.895C483.116 274.625 464.474 245.812 446.804 216.456C438.392 202.5 430.21 188.434 422.259 174.259C416.09 163.268 410.058 152.211 404.163 141.089C402.478 137.912 400.84 134.72 399.21 131.522C395.37 123.999 391.601 116.441 387.554 109.021C382.943 100.564 377.329 91.698 368.861 86.0163C365.008 83.3244 360.399 81.6957 355.575 81.3204C348.682 80.9114 342.321 83.5259 336.342 86.3814C292.596 107.334 251.641 133.603 214.598 163.494C177.46 193.453 144.265 227.299 115.689 264.342C114.814 265.489 112.747 264.393 113.63 263.24C117.104 258.726 120.648 254.262 124.26 249.846C169.177 194.975 224.252 147.789 286.967 110.445C297.518 104.164 308.268 98.1783 319.216 92.4867C324.734 89.6166 330.276 86.7831 335.913 84.1248C341.439 81.5176 347.306 79.1733 353.619 79.0856C375.103 78.7789 386.226 101.126 393.867 116.163C396.268 120.896 398.698 125.613 401.158 130.317C410.452 148.173 420.105 165.865 430.115 183.395C436.293 194.218 442.606 204.978 449.054 215.675C469.122 248.984 490.452 281.619 513.043 313.58C542.97 355.915 572.659 393.314 606.752 432.904C607.69 434 606.013 435.563 605.066 434.453Z" fill="#E4E4E4"/>
<path d="M212.475 152.46C211.227 151.182 209.986 149.904 208.73 148.626C198.823 138.562 188.193 128.615 174.589 122.846C168.102 120.008 161.021 118.5 153.837 118.427C146.411 118.449 139.152 120.238 132.291 122.743C129.046 123.934 125.874 125.285 122.749 126.724C119.179 128.374 115.673 130.134 112.183 131.909C105.631 135.239 99.1642 138.715 92.7826 142.338C80.0848 149.546 67.7847 157.304 55.8823 165.612C49.7122 169.921 43.6694 174.371 37.754 178.962C32.2521 183.227 26.8614 187.607 21.582 192.101C20.4531 193.057 18.7674 191.509 19.8963 190.552C21.2877 189.362 22.6951 188.179 24.1024 187.01C28.0778 183.709 32.1169 180.472 36.2197 177.297C43.7013 171.499 51.3765 165.924 59.2455 160.573C71.4821 152.248 84.1398 144.487 97.2188 137.291C103.755 133.698 110.38 130.256 117.096 126.965C119.124 125.971 121.175 125 123.25 124.08C127.959 121.898 132.851 120.069 137.88 118.61C145.003 116.493 152.54 115.813 159.975 116.616C167.155 117.575 174.072 119.773 180.362 123.094C193.719 129.952 204.079 140.556 214.161 150.904C215.179 151.956 213.501 153.511 212.475 152.46Z" fill="#E4E4E4"/>
<path d="M486.164 256.745L518.171 245.992L534.063 240.653C539.239 238.915 544.402 236.935 549.753 235.69C554.402 234.47 559.339 234.528 563.954 235.856C568.069 237.255 571.836 239.4 575.03 242.163C578.294 244.924 581.33 247.902 584.115 251.075C587.575 254.894 590.984 258.753 594.408 262.6C608.54 278.475 622.58 294.418 636.527 310.431C650.474 326.443 664.328 342.524 678.089 358.672C691.883 374.86 705.582 391.116 719.186 407.439C720.853 409.439 722.518 411.44 724.182 413.441C725.101 414.547 727.174 413.457 726.241 412.336C712.537 395.848 698.736 379.428 684.84 363.076C670.91 346.684 656.884 330.362 642.762 314.109C628.639 297.857 614.422 281.675 600.109 265.564C596.543 261.55 592.971 257.541 589.394 253.536C586.376 250.158 583.392 246.743 580.082 243.598C574.006 237.827 566.415 232.726 557.329 232.588C551.986 232.506 546.816 234.063 541.852 235.713C536.501 237.491 531.163 239.302 525.819 241.097L493.587 251.926L485.53 254.633C484.1 255.113 484.717 257.231 486.164 256.746L486.164 256.745Z" fill="#E4E4E4"/>
<path d="M170.377 135.509C154.111 127.83 133.281 129.334 118.334 138.927C146.844 143.445 175.042 149.49 202.784 157.032C191.264 150.831 182.253 141.115 170.377 135.509Z" fill="#F2F2F2"/>
<path d="M118.174 138.901L115.043 141.239C116.102 140.42 117.203 139.653 118.334 138.927C118.281 138.919 118.227 138.909 118.174 138.901Z" fill="#F2F2F2"/>
<path d="M573.825 256.853C570.674 253.33 567.268 249.641 562.555 248.211L558.155 248.37C591.649 302.732 636.884 350.233 691.085 387.958C651.998 344.256 612.912 300.555 573.825 256.853Z" fill="#F2F2F2"/>
<path d="M300.219 227.792C302.255 234.587 306.842 240.501 313.169 244.489C315.615 246.018 318.509 247.486 319.345 250.093C319.785 251.755 319.514 253.508 318.588 254.992C317.663 256.456 316.537 257.806 315.239 259.008L315.12 259.416C309.05 256.112 303.276 251.933 299.923 246.231C296.57 240.528 296.102 233.055 300.219 227.792" fill="#F2F2F2"/>
<path d="M502.302 389.51C504.338 396.305 508.925 402.219 515.252 406.207C517.698 407.736 520.592 409.204 521.428 411.811C521.869 413.473 521.597 415.226 520.671 416.71C519.746 418.175 518.62 419.524 517.322 420.726L517.203 421.134C511.133 417.83 505.359 413.651 502.006 407.949C498.653 402.247 498.185 394.773 502.302 389.51" fill="#F2F2F2"/>
<path d="M99.003 378.357C101.039 385.152 105.626 391.066 111.953 395.054C114.399 396.583 117.293 398.051 118.129 400.658C118.57 402.32 118.298 404.073 117.372 405.557C116.447 407.022 115.321 408.371 114.023 409.573L113.904 409.981C107.835 406.677 102.06 402.498 98.7071 396.796C95.3542 391.094 94.8862 383.62 99.003 378.357" fill="#F2F2F2"/>
<path d="M563.1 81.2574C587.529 81.2574 607.332 63.0673 607.332 40.6287C607.332 18.1901 587.529 0 563.1 0C538.671 0 518.867 18.1901 518.867 40.6287C518.867 63.0673 538.671 81.2574 563.1 81.2574Z" fill="#FACC15"/>
<path d="M642.923 9.45645C621.486 6.79492 597.012 17.4377 591.456 36.6407C590.055 33.2264 587.51 30.3094 584.186 28.311C580.863 26.3127 576.934 25.3365 572.967 25.5234C569 25.7104 565.201 27.0509 562.118 29.3512C559.034 31.6515 556.827 34.7925 555.815 38.3205L558.269 39.9351C604.208 49.06 651.762 48.8625 697.61 39.3564C682.698 24.962 664.36 12.1179 642.923 9.45645Z" fill="#F0F0F0"/>
<path d="M550.988 63.6281C529.551 60.9666 505.077 71.6094 499.521 90.8123C498.12 87.398 495.575 84.481 492.251 82.4826C488.928 80.4843 484.999 79.5081 481.032 79.6951C477.065 79.882 473.266 81.2225 470.183 83.5228C467.099 85.8231 464.892 88.9642 463.88 92.4922L466.334 94.1067C512.273 103.232 559.828 103.034 605.675 93.528C590.763 79.1336 572.425 66.2896 550.988 63.6281Z" fill="#F0F0F0"/>
<path d="M738.09 73.8711C738.001 73.8712 737.913 73.8587 737.828 73.8337C508.506 7.22008 306.39 15.931 177.217 34.9687C159.638 37.5586 142.012 40.5498 124.828 43.8601C120.441 44.7042 115.89 45.609 111.301 46.5511C105.821 47.6722 100.413 48.8267 95.2278 49.9812C92.9885 50.4682 90.7928 50.9591 88.6409 51.4539C85.3813 52.193 82.0738 52.9631 78.5283 53.8095C74.5666 54.7478 70.5413 55.7319 66.5617 56.7347C66.5472 56.7394 66.5323 56.7433 66.5173 56.7464L66.5177 56.7472C62.0228 57.8744 57.5515 59.0344 53.2277 60.1928C50.8875 60.8136 48.6277 61.4259 46.4633 62.0304C46.2215 62.0918 46.0072 62.151 45.7899 62.2117L45.3249 62.3416C45.0556 62.417 44.7896 62.4909 44.5237 62.5609L44.5068 62.5656L44.5072 62.5664L43.8033 62.7672C42.964 63.0006 42.1449 63.2285 41.3395 63.4557C20.0514 69.4834 8.34867 73.7716 8.23305 73.8136C8.12733 73.8525 8.01431 73.8719 7.90042 73.8707C7.78653 73.8695 7.67401 73.8477 7.56929 73.8066C7.46456 73.7654 7.36968 73.7057 7.29007 73.6309C7.21046 73.5561 7.14768 73.4676 7.1053 73.3705C7.06292 73.2734 7.04179 73.1696 7.0431 73.065C7.0444 72.9603 7.06813 72.857 7.11292 72.7608C7.15771 72.6646 7.22268 72.5775 7.30414 72.5044C7.3856 72.4312 7.48193 72.3736 7.58765 72.3346C7.70412 72.2926 19.464 67.9827 40.8296 61.9324C41.638 61.7045 42.4592 61.4765 43.3011 61.2423L43.9549 61.0556C43.9774 61.0479 43.9998 61.0416 44.0227 61.0354C44.2874 60.9662 44.5516 60.8923 44.8201 60.8176L45.286 60.6877C45.518 60.6231 45.7467 60.5593 45.9809 60.5002C48.1306 59.8996 50.3979 59.2858 52.7441 58.6626C57.0696 57.5034 61.5451 56.3435 66.0434 55.2146C66.0574 55.21 66.0718 55.2069 66.0857 55.203V55.2022C70.0793 54.1963 74.1194 53.2082 78.0938 52.2669C81.6448 51.4197 84.9586 50.6479 88.2237 49.9073C90.3848 49.4133 92.5847 48.9214 94.8234 48.4315C100.015 47.2754 105.433 46.1194 110.923 44.996C115.519 44.0531 120.078 43.146 124.472 42.3011C141.683 38.9854 159.336 35.9894 176.942 33.3957C306.3 14.3307 508.706 5.60577 738.351 72.3151C738.548 72.3724 738.717 72.4926 738.826 72.6542C738.936 72.8157 738.978 73.0079 738.947 73.1959C738.915 73.3838 738.812 73.5553 738.654 73.6791C738.497 73.803 738.297 73.8711 738.09 73.8711Z" fill="#CCCCCC"/>
<path d="M228.093 334.462C227.792 333.655 227.287 332.926 226.618 332.335C226.371 332.125 226.104 331.935 225.82 331.769C223.557 330.383 220.174 330.072 218.023 331.769C217.807 331.942 217.606 332.131 217.425 332.335C216.783 333.06 216.124 333.769 215.447 334.462C214.337 335.625 213.201 336.748 212.013 337.84C211.674 338.142 211.336 338.453 210.989 338.756C210.79 338.939 210.59 339.114 210.391 339.289C209.628 339.959 208.847 340.604 208.058 341.241C207.641 341.584 207.225 341.918 206.8 342.245C206.167 342.731 205.534 343.217 204.892 343.687C204.831 343.727 204.771 343.767 204.71 343.814C204.693 343.822 204.684 343.838 204.667 343.846C204.658 343.846 204.649 343.846 204.641 343.862C204.617 343.871 204.596 343.884 204.58 343.902C204.389 344.022 204.259 344.101 204.164 344.173C204.198 344.157 204.233 344.133 204.268 344.117C204.112 344.229 203.947 344.34 203.791 344.452C202.273 345.479 200.72 346.467 199.133 347.391C195.206 349.7 191.082 351.711 186.8 353.406C186.514 353.51 186.219 353.621 185.924 353.725C174.714 357.943 162.553 359.589 150.494 358.52C149.263 358.433 148.031 358.313 146.8 358.162C145.377 357.971 143.964 357.74 142.559 357.477C137.21 356.497 131.976 355.045 126.93 353.143C120.618 350.488 114.614 347.253 109.011 343.488C108.144 342.922 107.268 342.357 106.392 341.807C107.389 339.56 108.369 337.314 109.323 335.051C109.8 333.96 110.26 332.869 110.711 331.769C114.258 323.301 117.589 314.753 120.78 306.173C124.007 297.482 127.051 288.74 129.913 279.948C130.208 279.055 130.494 278.163 130.772 277.271C132.272 272.627 133.712 267.972 135.091 263.306C135.221 262.852 135.36 262.406 135.481 261.952C135.88 260.613 136.271 259.275 136.652 257.937C137.52 254.917 135.559 251.308 132.108 250.584C130.446 250.192 128.683 250.409 127.191 251.187C125.7 251.966 124.595 253.246 124.111 254.758C123.738 256.048 123.365 257.331 122.983 258.622C121.153 264.859 119.228 271.076 117.207 277.271C116.912 278.163 116.617 279.055 116.322 279.948C111.865 293.443 106.97 306.802 101.639 320.027C100.997 321.628 100.347 323.224 99.6875 324.815C99.3666 325.595 99.0457 326.376 98.7161 327.157C98.083 328.694 97.4325 330.232 96.782 331.769C96.409 332.669 96.0274 333.57 95.6458 334.462C95.3943 335.027 95.1515 335.593 94.9086 336.151C92.4358 335.335 89.8737 334.769 87.2676 334.462L86.8513 334.414C84.8308 334.191 82.7875 334.207 80.7715 334.462C77.7542 334.785 74.851 335.713 72.2673 337.181C69.6835 338.648 67.4822 340.619 65.8191 342.954C61.682 348.937 61.734 357.493 67.5363 362.575C73.5121 367.809 82.5581 367.769 89.592 364.495C93.3195 362.643 96.4625 359.937 98.7161 356.64C99.5795 355.445 100.373 354.209 101.093 352.936C101.275 353.047 101.457 353.159 101.639 353.279C102.333 353.725 103.027 354.179 103.712 354.625C107.704 357.281 111.911 359.654 116.296 361.723C125.726 366.029 135.876 368.848 146.323 370.064C146.557 370.088 146.782 370.12 147.017 370.143C148.17 370.279 149.332 370.382 150.494 370.47C167.166 371.624 183.858 368.49 198.7 361.42C199.957 360.823 201.203 360.196 202.438 359.54C204.354 358.52 206.228 357.437 208.058 356.29C209.055 355.668 210.027 355.039 210.989 354.378C215.196 351.532 219.118 348.346 222.707 344.858C224.068 343.544 225.372 342.187 226.618 340.787C227.797 339.642 228.476 338.14 228.526 336.565C228.52 335.846 228.373 335.133 228.093 334.462ZM84.4749 353.438C84.657 353.318 84.8392 353.191 85.0126 353.063C84.9606 353.183 84.7091 353.318 84.4749 353.438H84.4749ZM87.2589 350.865C87.0595 351.072 86.8773 351.279 86.6778 351.486C86.071 352.11 85.419 352.695 84.7264 353.239C84.631 353.318 84.5269 353.398 84.4229 353.47C84.4217 353.47 84.4206 353.47 84.4195 353.47C84.4184 353.471 84.4175 353.471 84.4167 353.472C84.4158 353.473 84.4152 353.474 84.4148 353.475C84.4144 353.476 84.4141 353.477 84.4142 353.478C84.2889 353.529 84.1672 353.588 84.0499 353.653C83.6769 353.86 83.2953 354.051 82.9051 354.227C82.1409 354.485 81.3547 354.685 80.5547 354.824C79.9399 354.865 79.3228 354.871 78.7073 354.84H78.6899C78.2651 354.753 77.8454 354.647 77.4323 354.521C77.2242 354.426 77.0247 354.314 76.8252 354.203C76.7472 354.139 76.6777 354.075 76.6344 354.035C76.5497 353.964 76.4714 353.887 76.4003 353.804C76.4003 353.803 76.4001 353.802 76.3997 353.801C76.3992 353.8 76.3986 353.799 76.3978 353.799C76.397 353.798 76.396 353.797 76.3949 353.797C76.3939 353.796 76.3928 353.796 76.3916 353.796C76.2962 353.637 76.1921 353.478 76.0967 353.318C76.0918 353.314 76.0887 353.309 76.088 353.302C76.0187 353.103 75.958 352.896 75.9059 352.689C75.8871 352.325 75.89 351.961 75.9146 351.598C76.031 351.089 76.1875 350.588 76.3829 350.1C76.5585 349.754 76.7584 349.418 76.9814 349.096C76.9987 349.064 77.0855 348.937 77.1809 348.793C77.1895 348.785 77.1895 348.785 77.1895 348.778C77.3196 348.642 77.4497 348.499 77.5885 348.371C77.8227 348.132 78.0742 347.925 78.3257 347.71C78.8149 347.416 79.3216 347.147 79.8435 346.905C80.6715 346.635 81.5211 346.425 82.3847 346.276C83.6582 346.183 84.9381 346.194 86.2096 346.308C87.4138 346.5 88.602 346.769 89.7655 347.113C89.0603 348.37 88.2574 349.578 87.3631 350.729C87.3283 350.777 87.2937 350.825 87.2589 350.865ZM77.6145 348.244C77.5381 348.356 77.4479 348.461 77.3456 348.554C77.4144 348.437 77.5055 348.332 77.6145 348.244Z" fill="#3F3D56"/>
<path d="M202.021 253.101C201.943 255.602 201.865 258.104 201.787 260.605C201.622 266.158 201.452 271.713 201.275 277.271C201.093 283.525 200.902 289.775 200.703 296.024C200.608 299.25 200.509 302.477 200.408 305.703C200.139 314.394 199.873 323.083 199.61 331.769C199.584 332.669 199.549 333.562 199.523 334.462C199.393 338.772 199.263 343.081 199.133 347.391C198.986 352.067 198.841 356.744 198.7 361.42C198.595 364.925 198.488 368.433 198.379 371.944C197.598 397.38 196.818 422.817 196.037 448.254C196.004 449.829 195.308 451.331 194.095 452.445C192.882 453.559 191.247 454.199 189.532 454.229C187.811 454.216 186.165 453.582 184.948 452.465C183.731 451.347 183.041 449.835 183.027 448.254C183.461 433.946 183.9 419.639 184.346 405.331C184.736 392.394 185.132 379.456 185.534 366.519C185.664 362.257 185.794 357.992 185.924 353.725C186.124 347.304 186.32 340.883 186.514 334.462C186.54 333.562 186.575 332.669 186.601 331.769C186.618 330.98 186.644 330.2 186.67 329.411C187.052 316.944 187.433 304.474 187.815 292.001C187.971 287.093 188.121 282.184 188.266 277.271C188.439 271.671 188.613 266.073 188.786 260.478C188.864 258.016 188.934 255.562 189.012 253.101C189.045 251.526 189.741 250.023 190.953 248.909C192.166 247.795 193.802 247.156 195.516 247.126C197.237 247.139 198.884 247.772 200.101 248.89C201.318 250.008 202.007 251.52 202.021 253.101Z" fill="#3F3D56"/>
<path d="M558.857 254.759C552.036 278.483 543.883 301.866 534.432 324.816C531.824 331.147 529.156 337.465 526.304 343.706L526.96 342.279C525.687 345.252 524.061 348.087 522.112 350.733C521.98 350.903 521.845 351.072 521.707 351.24C522.381 350.448 522.509 350.292 522.091 350.771C521.871 351.01 521.654 351.25 521.426 351.484C520.819 352.108 520.167 352.695 519.475 353.239C519.301 353.376 519.124 353.51 518.944 353.641L519.758 353.06C519.664 353.265 519.001 353.536 518.795 353.652C518.126 354.022 517.429 354.347 516.709 354.623L518.263 354.02C517.082 354.457 515.851 354.767 514.593 354.945L516.322 354.732C515.086 354.888 513.834 354.901 512.595 354.768L514.324 354.982C513.31 354.853 512.318 354.608 511.371 354.251L512.925 354.853C512.419 354.651 511.933 354.413 511.469 354.14C511.233 353.999 510.51 353.495 511.456 354.159C512.439 354.849 511.582 354.218 511.38 354.035C511.211 353.882 511.059 353.716 510.894 353.561C510.129 352.84 511.758 354.801 511.238 353.958C510.961 353.536 510.706 353.101 510.477 352.654L511.132 354.082C510.834 353.402 510.622 352.693 510.501 351.969L510.733 353.558C510.609 352.657 510.608 351.746 510.731 350.845L510.498 352.434C510.657 351.428 510.947 350.444 511.361 349.502L510.705 350.929C510.994 350.295 511.336 349.683 511.727 349.098C511.907 348.796 512.119 348.51 512.359 348.245C512.402 348.257 511.259 349.45 511.865 348.848C512.024 348.69 512.172 348.524 512.333 348.368C512.589 348.118 512.865 347.889 513.135 347.653C514.041 346.86 511.867 348.422 512.913 347.795C513.671 347.338 514.468 346.938 515.297 346.601L513.744 347.203C515.132 346.679 516.588 346.321 518.076 346.136L516.347 346.349C518.21 346.152 520.093 346.173 521.95 346.41L520.221 346.197C522.573 346.524 524.872 347.118 527.065 347.965L525.512 347.363C530.186 349.206 534.326 351.943 538.459 354.627C542.45 357.282 546.656 359.654 551.04 361.722C560.47 366.029 570.621 368.849 581.068 370.066C596.051 371.752 611.256 369.954 625.286 364.839C639.316 359.723 651.723 351.453 661.369 340.788C662.545 339.641 663.223 338.138 663.274 336.563C663.261 334.981 662.578 333.465 661.369 332.338C658.982 330.326 654.474 329.758 652.169 332.338C649.985 334.787 647.637 337.109 645.138 339.29C643.972 340.307 642.774 341.292 641.546 342.246C640.844 342.791 640.133 343.325 639.411 343.848C639.07 344.096 638.008 344.755 639.64 343.691C639.265 343.935 638.907 344.201 638.538 344.451C633.075 348.15 627.156 351.242 620.903 353.664L622.457 353.062C615.747 355.647 608.701 357.421 601.493 358.338L603.223 358.124C595.808 359.02 588.298 359.01 580.886 358.094L582.615 358.307C575.206 357.373 567.959 355.56 561.057 352.914L562.611 353.516C555.95 350.809 549.629 347.446 543.758 343.486C540.703 341.408 537.481 339.545 534.12 337.914C530.204 336.077 525.964 334.893 521.598 334.418C513.411 333.533 505.07 336.462 500.569 342.958C496.427 348.937 496.48 357.492 502.281 362.575C508.254 367.811 517.301 367.767 524.341 364.492C531.121 361.338 535.194 354.784 538.058 348.605C544.503 334.7 550.209 320.473 555.525 306.174C560.785 292.027 565.555 277.737 569.835 263.304C570.365 261.516 570.887 259.727 571.402 257.936C572.27 254.917 570.308 251.308 566.858 250.586C565.196 250.193 563.432 250.408 561.939 251.187C560.446 251.965 559.341 253.246 558.857 254.759L558.857 254.759Z" fill="#3F3D56"/>
<path d="M623.76 253.101L621.418 329.413L619.089 405.329L617.772 448.254C617.787 449.835 618.477 451.347 619.694 452.464C620.91 453.582 622.556 454.216 624.277 454.229C625.992 454.199 627.627 453.56 628.84 452.446C630.053 451.332 630.749 449.83 630.782 448.254L633.123 371.942L635.452 296.026L636.769 253.101C636.755 251.52 636.065 250.008 634.848 248.891C633.631 247.773 631.985 247.139 630.265 247.126C628.55 247.156 626.914 247.795 625.702 248.909C624.489 250.023 623.793 251.525 623.76 253.101Z" fill="#3F3D56"/>
<path opacity="0.2" d="M398.608 426.948H400.628V342.471H447.747V340.62H400.628V304.975H437.016C436.483 304.352 435.934 303.737 435.369 303.129H400.628V279.586C399.96 279.325 399.286 279.072 398.608 278.835V303.129H359.013V272.964C358.335 272.993 357.667 273.036 356.994 273.088V303.129H325.406V280.623C324.728 280.899 324.06 281.189 323.397 281.494V303.129H296.843V304.975H323.397V340.62H296.843V342.471H323.397V426.948H325.406V342.471C329.554 342.47 333.662 343.22 337.495 344.678C341.328 346.136 344.81 348.273 347.744 350.967C350.677 353.661 353.004 356.86 354.591 360.381C356.178 363.901 356.994 367.674 356.994 371.485V426.948H359.013V342.471H398.608V426.948ZM325.406 340.62V304.975H356.994V340.62H325.406ZM359.013 340.62V304.975H359.806C364.902 304.975 369.948 305.898 374.656 307.689C379.363 309.481 383.641 312.106 387.244 315.416C390.847 318.726 393.705 322.656 395.655 326.98C397.605 331.305 398.608 335.94 398.608 340.62H359.013Z" fill="black"/>
<path d="M386.273 401.619C383.73 412.038 377.639 421.441 368.883 428.465C368.241 428.975 367.599 429.469 366.932 429.955C365.31 430.091 363.699 430.229 362.101 430.369C360.774 430.481 359.464 430.6 358.163 430.712L357.929 430.736L357.764 429.429L357.105 424.14C354.548 420.305 352.963 415.991 352.467 411.518C351.972 407.044 352.579 402.526 354.243 398.297C356.532 392.625 360.678 387.614 364.755 382.643C370.383 375.776 375.856 368.988 376.056 360.615C378.825 363.871 381.128 367.44 382.907 371.235C381.228 371.961 379.72 372.981 378.467 374.238C378.111 374.596 377.756 375.098 377.998 375.529C378.207 375.895 378.727 375.983 379.178 376.03C380.262 376.134 381.355 376.238 382.439 376.341C383.306 376.429 384.174 376.508 385.041 376.596C386.09 379.759 386.802 383.009 387.166 386.299C387.75 391.417 387.449 396.587 386.273 401.619Z" fill="#3F3D56"/>
<path d="M415.067 380.739C409.95 384.156 406.958 389.072 404.633 394.489C402.251 395.189 400.108 396.446 398.415 398.137C398.059 398.496 397.704 398.998 397.947 399.428C398.155 399.794 398.675 399.882 399.126 399.93C400.21 400.033 401.303 400.137 402.387 400.241C400.063 406.646 397.929 413.274 393.818 418.683C391.084 422.254 387.52 425.223 383.384 427.374C382.257 427.964 381.093 428.494 379.898 428.959C375.492 429.27 371.17 429.602 366.932 429.955C365.31 430.091 363.699 430.229 362.101 430.369C360.774 430.481 359.464 430.601 358.163 430.712C358.154 430.274 358.154 429.836 358.163 429.398C358.437 417.726 363.112 406.503 371.39 397.643C371.78 397.229 372.179 396.823 372.586 396.417C376.78 392.303 381.711 388.88 387.166 386.299C395.76 382.195 405.393 380.275 415.067 380.739Z" fill="#FACC15"/>
<path d="M363.601 426.283L362.604 428.991L362.101 430.369C360.774 430.481 359.464 430.601 358.163 430.712L357.929 430.736C356.489 430.871 355.058 431.007 353.627 431.142C353.254 430.744 352.881 430.338 352.517 429.923C343.464 419.854 339.118 406.903 340.43 393.899C341.741 380.896 348.603 368.898 359.516 360.528C358.371 366.033 359.707 371.306 361.901 376.54C361.667 376.628 361.441 376.716 361.225 376.811C359.546 377.537 358.037 378.557 356.784 379.815C356.428 380.173 356.073 380.675 356.316 381.105C356.524 381.472 357.044 381.559 357.495 381.607C358.579 381.711 359.672 381.814 360.756 381.918C361.624 382.005 362.491 382.085 363.358 382.173C363.766 382.212 364.173 382.252 364.581 382.292C364.642 382.412 364.694 382.523 364.755 382.643C367.226 387.566 369.889 392.513 371.389 397.643C371.766 398.931 372.061 400.237 372.274 401.555C372.942 406.01 372.509 410.547 371.008 414.827C369.506 419.108 366.975 423.023 363.601 426.283Z" fill="#FACC15"/>
<path d="M450.903 310.738C443.436 297.361 431.869 286.105 418.264 277.834C404.616 269.574 388.954 264.544 372.676 263.192C370.542 263.014 368.403 262.91 366.259 262.879C363.725 262.844 325.611 272.942 312.844 281.188C300.083 289.333 289.586 300.119 282.199 312.676C274.825 325.302 271.198 339.489 271.682 353.81C272.315 368.217 276.687 382.277 284.434 394.817C292.076 407.317 302.927 417.913 316.043 425.684C329.345 433.48 342.708 454.152 358.415 454.882C374.239 455.617 392.287 436.117 406.719 430.196C421.152 424.226 433.63 414.886 442.908 403.107C451.925 391.563 457.758 378.182 459.907 364.113C462.139 349.707 461.099 334.85 455.743 321.081C454.368 317.543 452.752 314.089 450.903 310.738C449.359 307.946 444.835 306.918 442.003 308.595C440.544 309.42 439.487 310.73 439.053 312.253C438.618 313.775 438.839 315.393 439.669 316.769C440.576 318.409 441.419 320.076 442.198 321.77L441.542 320.343C444.491 326.856 446.496 333.696 447.506 340.688L447.274 339.1C448.348 346.685 448.329 354.368 447.216 361.949L447.449 360.361C446.324 367.941 444.122 375.354 440.897 382.407L441.552 380.98C439.893 384.579 437.96 388.066 435.766 391.415C434.654 393.107 433.474 394.759 432.227 396.371C431.679 397.079 431.114 397.774 430.545 398.467C429.803 399.372 431.557 397.286 430.79 398.173C430.659 398.324 430.529 398.476 430.398 398.626C430.004 399.079 429.605 399.527 429.2 399.971C426.496 402.934 423.545 405.7 420.374 408.243C419.584 408.876 418.781 409.495 417.964 410.1C417.558 410.401 417.156 410.716 416.732 410.996C416.748 410.985 418.102 410.04 417.301 410.589C417.049 410.761 416.799 410.936 416.546 411.108C414.864 412.253 413.137 413.34 411.365 414.368C407.286 416.729 403.006 418.783 398.567 420.513L400.121 419.91C392.464 422.871 384.417 424.894 376.186 425.926L377.915 425.713C369.689 426.734 361.351 426.748 353.12 425.753L354.849 425.966C347.368 425.044 340.051 423.227 333.084 420.562L334.638 421.164C330.602 419.599 326.71 417.736 323.002 415.595C321.166 414.533 319.379 413.405 317.639 412.211C317.39 412.041 317.144 411.868 316.897 411.697C316.103 411.146 317.467 412.103 317.478 412.109C317.017 411.805 316.572 411.48 316.147 411.134C315.307 410.505 314.479 409.862 313.665 409.204C310.408 406.57 307.366 403.718 304.564 400.673C303.863 399.911 303.177 399.138 302.505 398.354C302.215 398.015 301.684 397.326 302.856 398.776C302.702 398.585 302.542 398.398 302.386 398.208C302.012 397.753 301.644 397.294 301.28 396.832C300.006 395.213 298.795 393.554 297.648 391.856C295.054 388.012 292.791 383.987 290.878 379.82L291.534 381.247C288.404 374.407 286.263 367.219 285.167 359.868L285.4 361.456C284.411 354.68 284.397 347.813 285.358 341.034L285.125 342.622C286.111 336.056 288.034 329.639 290.845 323.535L290.189 324.962C291.958 321.141 294.044 317.451 296.43 313.924C297.624 312.159 298.889 310.437 300.226 308.758C300.53 308.376 300.837 307.997 301.148 307.62C301.429 307.28 302.202 306.431 300.883 307.93C301.012 307.783 301.137 307.632 301.264 307.483C301.998 306.63 302.749 305.789 303.519 304.962C306.431 301.831 309.586 298.897 312.958 296.182C313.81 295.496 314.676 294.825 315.555 294.168C315.955 293.869 316.357 293.574 316.762 293.281C316.924 293.164 317.088 293.05 317.249 292.932C315.516 294.198 316.767 293.276 317.161 293.006C318.973 291.759 320.833 290.574 322.742 289.452C326.986 286.959 331.45 284.798 336.087 282.993L334.533 283.595C341.263 280.999 371.082 274.872 376.506 275.541L374.776 275.328C382.748 276.35 390.539 278.327 397.951 281.209L396.397 280.606C400.153 282.071 403.803 283.755 407.325 285.649C409.085 286.596 410.81 287.595 412.501 288.646C413.301 289.143 414.092 289.652 414.876 290.171C415.267 290.431 415.656 290.694 416.043 290.959C416.258 291.107 416.471 291.256 416.686 291.404C417.587 292.024 415.445 290.505 416.389 291.191C419.552 293.473 422.555 295.935 425.382 298.563C426.77 299.861 428.11 301.201 429.403 302.582C430.066 303.291 430.716 304.01 431.352 304.739C431.668 305.101 432.744 306.413 431.425 304.806C431.747 305.199 432.073 305.589 432.391 305.984C435.132 309.392 437.566 312.999 439.669 316.769C441.225 319.556 445.729 320.595 448.569 318.913C450.029 318.088 451.086 316.778 451.521 315.255C451.955 313.733 451.734 312.115 450.903 310.738Z" fill="#3F3D56"/>
<path d="M375.109 408.243C374.437 408.272 373.772 408.11 373.204 407.779C372.636 407.449 372.193 406.966 371.934 406.397C371.674 405.827 371.612 405.198 371.755 404.595C371.898 403.992 372.239 403.443 372.733 403.024C372.815 402.722 372.875 402.506 372.957 402.204C372.928 402.138 372.898 402.073 372.868 402.007C369.85 395.397 350.591 413.824 349.759 420.036C349.392 422.782 349.547 425.566 350.216 428.264C343.978 415.764 340.738 402.179 340.717 388.429C340.716 384.979 340.925 381.531 341.342 378.102C341.688 375.291 342.167 372.5 342.779 369.729C346.123 354.694 353.302 340.601 363.726 328.609C369.688 328.915 374.913 328.081 375.417 317.468C375.507 315.58 377.031 313.946 377.367 312.086C376.798 312.155 376.22 312.197 375.651 312.232C375.473 312.24 375.287 312.249 375.109 312.257L375.043 312.26C374.417 312.286 373.797 312.145 373.256 311.855C372.716 311.564 372.278 311.136 371.997 310.623C371.715 310.109 371.601 309.532 371.668 308.96C371.735 308.388 371.98 307.846 372.375 307.4C372.621 307.122 372.867 306.844 373.113 306.567C373.486 306.138 373.868 305.718 374.242 305.29C374.285 305.249 374.325 305.206 374.363 305.161C374.792 304.673 375.221 304.193 375.651 303.704C374.867 302.587 373.813 301.652 372.572 300.97C368.27 298.656 362.336 300.259 359.229 303.833C356.113 307.407 355.525 312.42 356.607 316.885C357.671 320.685 359.432 324.29 361.814 327.547C361.58 327.821 361.338 328.087 361.104 328.361C356.84 333.397 353.124 338.805 350.008 344.507C350.89 338.183 340.111 315.344 335.943 310.506C330.936 304.695 320.668 307.231 319.786 314.597C319.778 314.669 319.769 314.74 319.761 314.811C320.38 315.132 320.986 315.473 321.579 315.833C322.324 316.29 322.902 316.943 323.235 317.707C323.569 318.471 323.644 319.309 323.45 320.112C323.257 320.916 322.803 321.647 322.149 322.21C321.496 322.772 320.672 323.14 319.787 323.266L319.696 323.279C311.408 334.148 337.977 362.437 344.627 356.085C341.497 364.233 339.533 372.72 338.786 381.333C338.363 386.415 338.388 391.519 338.861 396.597L338.833 396.417C337.355 385.358 312.006 368.915 304.603 370.284C300.339 371.073 296.139 370.894 296.786 374.845C296.796 374.908 296.807 374.971 296.818 375.034C297.967 375.464 299.085 375.959 300.167 376.517C300.786 376.838 301.392 377.178 301.985 377.538C302.73 377.995 303.308 378.649 303.641 379.412C303.975 380.176 304.05 381.015 303.857 381.818C303.663 382.621 303.209 383.352 302.555 383.915C301.902 384.478 301.078 384.846 300.193 384.971L300.102 384.984C300.037 384.993 299.981 385.001 299.915 385.01C296.143 396.933 324.12 416.174 341.128 410.052H341.137C342.823 416.78 345.265 423.328 348.424 429.592H374.456C374.55 429.326 374.633 429.052 374.718 428.786C372.308 428.926 369.889 428.793 367.514 428.392C369.446 426.215 371.377 424.021 373.309 421.845C373.352 421.804 373.392 421.761 373.43 421.716C374.41 420.602 375.399 419.496 376.378 418.382L376.379 418.381C376.431 414.966 376.004 411.559 375.109 408.244L375.109 408.243ZM345.299 354.38L345.312 354.363L345.299 354.397V354.38ZM339.532 402.124L339.308 401.662C339.318 401.328 339.318 400.993 339.308 400.65C339.308 400.556 339.29 400.462 339.29 400.368C339.374 400.959 339.448 401.55 339.542 402.142L339.532 402.124Z" fill="#3F3D56"/>
<path d="M82.6102 358.488C87.8792 358.488 92.1506 354.565 92.1506 349.725C92.1506 344.886 87.8792 340.962 82.6102 340.962C77.3411 340.962 73.0698 344.886 73.0698 349.725C73.0698 354.565 77.3411 358.488 82.6102 358.488Z" fill="#3F3D56"/>
<path d="M197.095 454.085C202.364 454.085 206.635 450.162 206.635 445.322C206.635 440.483 202.364 436.559 197.095 436.559C191.826 436.559 187.555 440.483 187.555 445.322C187.555 450.162 191.826 454.085 197.095 454.085Z" fill="#3F3D56"/>
<path d="M631.617 454.085C636.886 454.085 641.157 450.162 641.157 445.322C641.157 440.483 636.886 436.559 631.617 436.559C626.348 436.559 622.077 440.483 622.077 445.322C622.077 450.162 626.348 454.085 631.617 454.085Z" fill="#3F3D56"/>
<path d="M655.034 342.556C660.303 342.556 664.575 338.632 664.575 333.793C664.575 328.953 660.303 325.03 655.034 325.03C649.765 325.03 645.494 328.953 645.494 333.793C645.494 338.632 649.765 342.556 655.034 342.556Z" fill="#3F3D56"/>
<path d="M627.28 261.298C632.549 261.298 636.821 257.375 636.821 252.535C636.821 247.696 632.549 243.772 627.28 243.772C622.011 243.772 617.74 247.696 617.74 252.535C617.74 257.375 622.011 261.298 627.28 261.298Z" fill="#3F3D56"/>
<path d="M229.185 333.793C229.18 336.031 228.237 338.182 226.553 339.8C224.869 341.418 222.572 342.379 220.138 342.485C217.704 342.591 215.319 341.833 213.476 340.368C211.633 338.903 210.474 336.844 210.238 334.616C210.002 332.388 210.708 330.162 212.209 328.399C213.71 326.636 215.892 325.47 218.303 325.143C220.713 324.816 223.169 325.353 225.161 326.643C227.153 327.933 228.528 329.876 229.003 332.072C229.126 332.639 229.187 333.215 229.185 333.793Z" fill="#3F3D56"/>
<path d="M419.994 286.791C425.263 286.791 429.534 282.867 429.534 278.028C429.534 273.188 425.263 269.265 419.994 269.265C414.724 269.265 410.453 273.188 410.453 278.028C410.453 282.867 414.724 286.791 419.994 286.791Z" fill="#3F3D56"/>
<path d="M325.457 278.028C325.451 280.266 324.509 282.417 322.825 284.035C321.141 285.653 318.844 286.614 316.41 286.72C313.975 286.826 311.59 286.068 309.747 284.603C307.904 283.139 306.745 281.079 306.509 278.851C306.273 276.623 306.979 274.397 308.48 272.634C309.981 270.871 312.163 269.705 314.574 269.378C316.985 269.051 319.44 269.588 321.432 270.878C323.424 272.168 324.8 274.112 325.275 276.307C325.397 276.874 325.458 277.45 325.457 278.028Z" fill="#3F3D56"/>
<path d="M202.299 252.535C202.293 254.774 201.351 256.924 199.667 258.542C197.983 260.16 195.686 261.122 193.252 261.227C190.817 261.333 188.432 260.575 186.589 259.111C184.746 257.646 183.587 255.587 183.351 253.359C183.115 251.131 183.821 248.905 185.322 247.142C186.823 245.378 189.005 244.213 191.416 243.886C193.827 243.559 196.282 244.096 198.274 245.386C200.266 246.675 201.642 248.619 202.117 250.814C202.239 251.381 202.3 251.957 202.299 252.535Z" fill="#3F3D56"/>
<path d="M519.734 361.675C525.003 361.675 529.275 357.752 529.275 352.912C529.275 348.072 525.003 344.149 519.734 344.149C514.465 344.149 510.194 348.072 510.194 352.912C510.194 357.752 514.465 361.675 519.734 361.675Z" fill="#3F3D56"/>
<path d="M369.69 282.011C377.354 282.011 383.567 276.304 383.567 269.265C383.567 262.225 377.354 256.518 369.69 256.518C362.026 256.518 355.813 262.225 355.813 269.265C355.813 276.304 362.026 282.011 369.69 282.011Z" fill="#3F3D56"/>
<path d="M744.967 454.755L1.03269 455C0.897072 455 0.762782 454.975 0.63749 454.928C0.512198 454.88 0.398363 454.81 0.302469 454.722C0.206575 454.634 0.130499 454.529 0.0786011 454.414C0.0267036 454.299 3.8147e-06 454.176 3.8147e-06 454.051C3.8147e-06 453.927 0.0267036 453.803 0.0786011 453.688C0.130499 453.573 0.206575 453.469 0.302469 453.381C0.398363 453.293 0.512198 453.223 0.63749 453.175C0.762782 453.127 0.897072 453.103 1.03269 453.103L744.967 452.858C745.241 452.859 745.503 452.959 745.696 453.137C745.889 453.315 745.997 453.555 745.997 453.807C745.997 454.058 745.889 454.298 745.696 454.476C745.503 454.654 745.241 454.754 744.967 454.755Z" fill="#CACACA"/>
</svg>
