<svg width="693" height="616" viewBox="0 0 693 616" fill="none" xmlns="http://www.w3.org/2000/svg">
<path d="M676.1 257.75C664.2 354.07 602.02 439.46 522.42 494.98C515.96 499.49 509.34 503.817 502.56 507.96C501.71 508.48 500.86 509 500.01 509.51C452.71 537.89 398.52 556.07 344.08 550.4C299.85 545.8 256.42 522.27 230.5 487.12C230.01 486.46 229.52 485.78 229.05 485.11C218.491 470.466 211.331 453.651 208.09 435.89C203.43 409.6 207.05 380.53 192.57 358.1C173.79 329 133.57 324.26 98.96 325.35C66.61 326.36 34.31 329.86 2 331.68C1.34 331.72 0.67 331.75 0 331.79V22.69C0.0072432 16.6745 2.40012 10.9074 6.65375 6.65375C10.9074 2.40012 16.6745 0.0072432 22.69 0H163.42C170.23 0.89 175.05 14.55 181.84 15C184.78 15.2 187.717 15.36 190.65 15.48C206.08 16.12 221.49 15.85 236.88 15C245.87 14.51 256.86 0.82 265.84 0H525.7C527.64 0.64 529.56 1.31 531.48 2C539.753 4.98126 547.835 8.46783 555.68 12.44C642.24 56.33 688 161.43 676.1 257.75Z" fill="#3F3D56"/>
<path d="M567.39 129.14C527.1 166.64 473.73 190.7 418.91 196.47C413.53 197.04 408.137 197.43 402.73 197.64C401.53 197.69 400.33 197.72 399.12 197.75C397.16 197.8 395.19 197.82 393.23 197.82C390.88 197.82 388.53 197.787 386.18 197.72C372.577 197.323 359.027 195.842 345.66 193.29C345.17 193.19 344.69 193.1 344.2 193C342.09 192.59 339.987 192.15 337.89 191.68C333.87 190.79 329.87 189.804 325.89 188.72C324.6 188.37 323.31 188.01 322.02 187.63C320.17 187.1 318.33 186.54 316.49 185.97C315.8 185.75 315.11 185.54 314.42 185.31C313.72 185.09 313.02 184.86 312.32 184.62C308.05 183.22 303.817 181.7 299.62 180.06C275.719 170.826 253.345 158.046 233.25 142.15C230.47 139.94 227.65 137.62 224.93 135.37C210.31 123.31 195.19 110.84 176.76 108.12C156.86 105.19 137.74 114.25 119.26 123.01C112.99 125.98 106.51 129.05 100.1 131.62C68.8091 143.946 34.324 145.594 2 136.31C1.33 136.13 0.66 135.93 0 135.73V133.64C0.66 133.84 1.33 134.04 2 134.23C34.0531 143.561 68.2968 141.989 99.36 129.76C105.71 127.22 112.17 124.16 118.41 121.2C137.16 112.31 156.55 103.12 177.05 106.14C196.03 108.94 211.37 121.59 226.2 133.83C228.92 136.07 231.73 138.39 234.49 140.59C254.452 156.385 276.682 169.078 300.43 178.24H300.44C304.46 179.8 308.53 181.27 312.62 182.63C313.21 182.82 313.8 183.01 314.39 183.21C315.05 183.42 315.72 183.63 316.38 183.84C318.07 184.38 319.763 184.894 321.46 185.38C323.12 185.88 324.79 186.353 326.47 186.8H326.48C330.78 187.97 335.107 189.027 339.46 189.97C341.43 190.41 343.4 190.81 345.39 191.19C345.82 191.28 346.26 191.36 346.7 191.44C359.524 193.86 372.516 195.285 385.56 195.7H385.57C390.1 195.84 394.623 195.857 399.14 195.75C400.32 195.72 401.49 195.68 402.66 195.64C407.77 195.44 412.873 195.08 417.97 194.56H417.98C472.63 188.97 525.87 165.05 566.03 127.67C566.225 127.491 566.483 127.397 566.748 127.407C567.013 127.418 567.262 127.534 567.442 127.728C567.622 127.922 567.717 128.18 567.708 128.445C567.698 128.709 567.584 128.96 567.39 129.14H567.39Z" fill="#6C63FF"/>
<path d="M0.309998 90.9401C0.248443 91.196 0.143603 91.4395 0 91.6601V88.8701C0.365156 89.4948 0.476145 90.2359 0.309998 90.9401V90.9401Z" fill="#FF6584"/>
<path d="M8.20081 101.532C8.40146 99.7362 7.55146 98.1674 6.30228 98.0278C5.05311 97.8882 3.87779 99.2307 3.67715 101.026C3.4765 102.822 4.3265 104.391 5.57568 104.531C6.82485 104.67 8.00017 103.328 8.20081 101.532Z" fill="#E6E6E6"/>
<path d="M10.9836 122.74C11.1843 120.944 10.3343 119.375 9.08512 119.236C7.83594 119.096 6.66063 120.439 6.45998 122.234C6.25934 124.03 7.10934 125.599 8.35851 125.739C9.60769 125.878 10.783 124.536 10.9836 122.74Z" fill="#3F3D56"/>
<path d="M504.961 291.866C505.449 289.938 503.599 287.806 500.827 287.104C498.056 286.401 495.413 287.395 494.925 289.323C494.436 291.251 496.287 293.383 499.058 294.085C501.829 294.787 504.472 293.794 504.961 291.866Z" fill="white"/>
<path d="M471.117 291.648C471.605 289.72 469.755 287.588 466.984 286.885C464.212 286.183 461.57 287.177 461.081 289.104C460.592 291.032 462.443 293.165 465.214 293.867C467.986 294.569 470.628 293.576 471.117 291.648Z" fill="#3F3D56"/>
<path d="M511.311 319.944C511.8 318.016 509.95 315.884 507.178 315.182C504.407 314.479 501.764 315.473 501.276 317.401C500.787 319.329 502.637 321.461 505.409 322.163C508.18 322.866 510.823 321.872 511.311 319.944Z" fill="#FF6584"/>
<path d="M519.201 330.532C519.401 328.736 518.551 327.167 517.302 327.028C516.053 326.888 514.878 328.231 514.677 330.026C514.476 331.822 515.326 333.391 516.576 333.531C517.825 333.67 519 332.328 519.201 330.532Z" fill="#E6E6E6"/>
<path d="M521.984 351.74C522.184 349.944 521.334 348.375 520.085 348.236C518.836 348.096 517.661 349.439 517.46 351.234C517.259 353.03 518.109 354.599 519.359 354.739C520.608 354.878 521.783 353.536 521.984 351.74Z" fill="#3F3D56"/>
<path d="M487.383 311.324C487.584 309.528 486.734 307.959 485.485 307.82C484.236 307.68 483.06 309.023 482.86 310.818C482.659 312.614 483.509 314.183 484.758 314.323C486.007 314.462 487.183 313.12 487.383 311.324Z" fill="#E6E6E6"/>
<path d="M504.415 304.925C504.616 303.13 503.766 301.561 502.517 301.421C501.267 301.282 500.092 302.624 499.891 304.42C499.691 306.216 500.541 307.785 501.79 307.924C503.039 308.064 504.214 306.721 504.415 304.925Z" fill="#FF6584"/>
<path d="M483.433 287.639C483.633 285.843 482.783 284.274 481.534 284.135C480.285 283.995 479.11 285.338 478.909 287.133C478.708 288.929 479.558 290.498 480.808 290.637C482.057 290.777 483.232 289.435 483.433 287.639Z" fill="#3F3D56"/>
<path d="M49.9605 54.866C50.4491 52.9381 48.5985 50.8059 45.8272 50.1036C43.0558 49.4013 40.4131 50.3948 39.9246 52.3227C39.436 54.2506 41.2865 56.3828 44.0579 57.0851C46.8292 57.7875 49.4719 56.7939 49.9605 54.866Z" fill="white"/>
<path d="M16.1169 54.6478C16.6055 52.7199 14.7549 50.5876 11.9836 49.8853C9.2122 49.183 6.56951 50.1765 6.08093 52.1044C5.59236 54.0323 7.44291 56.1646 10.2143 56.8669C12.9856 57.5692 15.6283 56.5757 16.1169 54.6478Z" fill="#3F3D56"/>
<path d="M56.3115 82.9442C56.8001 81.0163 54.9495 78.884 52.1781 78.1817C49.4068 77.4794 46.7641 78.4729 46.2755 80.4008C45.7869 82.3287 47.6375 84.4609 50.4088 85.1633C53.1802 85.8656 55.8229 84.8721 56.3115 82.9442Z" fill="#FF6584"/>
<path d="M64.2008 93.5319C64.4015 91.7362 63.5515 90.1674 62.3023 90.0278C61.0531 89.8882 59.8778 91.2307 59.6771 93.0264C59.4765 94.8221 60.3265 96.391 61.5757 96.5306C62.8249 96.6701 64.0002 95.3276 64.2008 93.5319Z" fill="#E6E6E6"/>
<path d="M66.9836 114.74C67.1843 112.944 66.3343 111.375 65.0851 111.236C63.8359 111.096 62.6606 112.439 62.46 114.234C62.2593 116.03 63.1093 117.599 64.3585 117.739C65.6077 117.878 66.783 116.536 66.9836 114.74Z" fill="#3F3D56"/>
<path d="M32.3834 74.3239C32.5841 72.5282 31.7341 70.9594 30.4849 70.8198C29.2357 70.6802 28.0604 72.0228 27.8598 73.8185C27.6591 75.6141 28.5091 77.183 29.7583 77.3226C31.0075 77.4621 32.1828 76.1196 32.3834 74.3239Z" fill="#E6E6E6"/>
<path d="M49.4152 67.9255C49.6158 66.1298 48.7658 64.561 47.5166 64.4214C46.2675 64.2818 45.0921 65.6243 44.8915 67.42C44.6909 69.2157 45.5409 70.7845 46.79 70.9241C48.0392 71.0637 49.2145 69.7212 49.4152 67.9255Z" fill="#FF6584"/>
<path d="M28.4329 50.6389C28.6335 48.8432 27.7835 47.2743 26.5343 47.1348C25.2852 46.9952 24.1098 48.3377 23.9092 50.1334C23.7086 51.9291 24.5586 53.4979 25.8077 53.6375C27.0569 53.7771 28.2322 52.4345 28.4329 50.6389Z" fill="#3F3D56"/>
<path d="M158.373 198.095C160.582 198.095 162.373 196.304 162.373 194.095C162.373 191.886 160.582 190.095 158.373 190.095C156.164 190.095 154.373 191.886 154.373 194.095C154.373 196.304 156.164 198.095 158.373 198.095Z" fill="white"/>
<path d="M60.3728 236.095C61.4774 236.095 62.3728 235.2 62.3728 234.095C62.3728 232.991 61.4774 232.095 60.3728 232.095C59.2682 232.095 58.3728 232.991 58.3728 234.095C58.3728 235.2 59.2682 236.095 60.3728 236.095Z" fill="white"/>
<path d="M457.373 385.095C458.477 385.095 459.373 384.2 459.373 383.095C459.373 381.991 458.477 381.095 457.373 381.095C456.268 381.095 455.373 381.991 455.373 383.095C455.373 384.2 456.268 385.095 457.373 385.095Z" fill="white"/>
<path d="M199.373 293.095C200.477 293.095 201.373 292.2 201.373 291.095C201.373 289.991 200.477 289.095 199.373 289.095C198.268 289.095 197.373 289.991 197.373 291.095C197.373 292.2 198.268 293.095 199.373 293.095Z" fill="white"/>
<path d="M235.373 84.0952C236.477 84.0952 237.373 83.1998 237.373 82.0952C237.373 80.9906 236.477 80.0952 235.373 80.0952C234.268 80.0952 233.373 80.9906 233.373 82.0952C233.373 83.1998 234.268 84.0952 235.373 84.0952Z" fill="white"/>
<path d="M562.373 161.095C563.477 161.095 564.373 160.2 564.373 159.095C564.373 157.991 563.477 157.095 562.373 157.095C561.268 157.095 560.373 157.991 560.373 159.095C560.373 160.2 561.268 161.095 562.373 161.095Z" fill="white"/>
<path d="M97.3728 57.0952C98.4774 57.0952 99.3728 56.1998 99.3728 55.0952C99.3728 53.9906 98.4774 53.0952 97.3728 53.0952C96.2682 53.0952 95.3728 53.9906 95.3728 55.0952C95.3728 56.1998 96.2682 57.0952 97.3728 57.0952Z" fill="white"/>
<path d="M461.373 47.0952C463.582 47.0952 465.373 45.3044 465.373 43.0952C465.373 40.8861 463.582 39.0952 461.373 39.0952C459.164 39.0952 457.373 40.8861 457.373 43.0952C457.373 45.3044 459.164 47.0952 461.373 47.0952Z" fill="white"/>
<path d="M640.37 574.6H638.37C638.37 563.06 627.56 551.77 606.23 541.04C585.36 530.54 555.44 521.1 517.32 512.99C511.68 511.79 505.91 510.63 500.01 509.51C469.49 503.71 435.58 498.96 399.26 495.35C391.75 494.6 384.133 493.903 376.41 493.26C373.91 493.04 371.39 492.84 368.86 492.63C361.83 492.08 354.727 491.567 347.55 491.09C310.09 488.61 270.76 487.26 230.5 487.12C228.13 487.1 225.75 487.1 223.37 487.1C170.94 487.1 159.1 492.05 158.4 496.21C156.61 506.73 217.25 527.86 275.89 548.31C340.8 570.93 407.51 594.19 430.23 614C431 614.67 431.72 615.34 432.39 616H429.64C428.91 615.34 428.12 614.67 427.28 614C403.29 594.84 336 571.38 275.23 550.19C200.29 524.07 154.46 507.47 156.42 495.87C157.27 490.85 165.65 485.1 223.37 485.1C225.26 485.1 227.16 485.1 229.05 485.11C269.3 485.22 308.63 486.54 346.13 489C353.46 489.47 360.717 489.99 367.9 490.56C370.57 490.77 373.23 490.98 375.88 491.21C383.8 491.87 391.617 492.583 399.33 493.35C436.61 497.05 471.38 501.95 502.56 507.96C507.72 508.96 512.78 509.987 517.74 511.04C596.82 527.86 640.37 550.43 640.37 574.6Z" fill="#E6E6E6"/>
<path d="M609.373 569.779H607.373C607.373 561.239 572.485 552.095 520.548 552.095C468.612 552.095 433.724 561.239 433.724 569.779H431.724C431.724 557.458 476.886 550.095 520.548 550.095C564.21 550.095 609.373 557.458 609.373 569.779Z" fill="#E6E6E6"/>
<path d="M574.476 575.595H572.476C572.476 570.772 551.269 565.397 520.839 565.397C490.409 565.397 469.202 570.772 469.202 575.595H467.202C467.202 567.672 494.837 563.397 520.839 563.397C546.841 563.397 574.476 567.672 574.476 575.595Z" fill="#E6E6E6"/>
<path d="M360.373 134.095C382.464 134.095 400.373 116.187 400.373 94.0952C400.373 72.0038 382.464 54.0952 360.373 54.0952C338.281 54.0952 320.373 72.0038 320.373 94.0952C320.373 116.187 338.281 134.095 360.373 134.095Z" fill="#F2F2F2"/>
<path d="M354.373 137.095C376.464 137.095 394.373 119.187 394.373 97.0952C394.373 75.0038 376.464 57.0952 354.373 57.0952C332.281 57.0952 314.373 75.0038 314.373 97.0952C314.373 119.187 332.281 137.095 354.373 137.095Z" fill="#F2F2F2"/>
<path d="M398.372 535.041L360.88 535.039V534.565C360.88 530.695 362.418 526.983 365.154 524.247C367.891 521.51 371.603 519.973 375.473 519.972H375.474L382.322 514.777L395.1 519.973L398.373 519.973L398.372 535.041Z" fill="#F2F2F2"/>
<path d="M380.919 514.791L348.886 534.273L348.64 533.868C346.629 530.562 346.014 526.592 346.93 522.831C347.846 519.071 350.218 515.829 353.524 513.817L353.525 513.817L356.676 505.819L370.293 503.618L373.089 501.917L380.919 514.791Z" fill="#F2F2F2"/>
<path d="M402.943 408.565C402.773 409.765 402.523 413.845 402.233 419.785C400.823 448.585 398.373 521.095 398.373 521.095L383.103 516.345C383.103 516.345 364.943 461.565 367.943 431.565L365.783 421.125L362.083 403.285V403.275L350.813 348.945C350.813 348.945 348.343 363.665 348.143 367.115C347.943 370.565 345.943 371.565 344.943 371.565C339.933 371.565 341.473 370.675 342.203 375.625C342.733 379.185 338.393 399.595 335.913 410.755C334.953 415.095 334.273 418.035 334.273 418.035L338.513 427.175L373.663 502.975L360.373 510.095L307.353 431.515L302.123 423.765L301.003 415.075L292.183 346.705C292.183 346.705 289.433 338.975 292.183 338.775C294.943 338.565 296.503 339.435 295.723 336.505C294.943 333.565 310.943 284.565 310.943 284.565L393.943 302.565C393.943 302.565 402.123 318.825 398.943 326.565C395.753 334.305 401.553 394.245 398.243 396.906C394.943 399.565 392.813 397.435 397.373 402.005C398.07 402.733 398.894 403.33 399.803 403.765C402.623 405.045 403.743 402.965 402.943 408.565Z" fill="#F2F2F2"/>
<path d="M354.113 122.016C366.846 122.016 377.169 111.693 377.169 98.96C377.169 86.2267 366.846 75.9043 354.113 75.9043C341.38 75.9043 331.057 86.2267 331.057 98.96C331.057 111.693 341.38 122.016 354.113 122.016Z" fill="#A0616A"/>
<path d="M372.08 118.816L362.94 120.566C362.94 120.566 371.44 106.846 370.94 100.566C370.44 94.2861 363.6 92.0361 363.6 92.0361C363.6 92.0361 359.81 92.8561 355.82 93.3161C355.342 91.9705 354.721 90.6799 353.97 89.4661C353.822 91.0331 353.128 92.4984 352.01 93.6061C350.547 93.7317 349.075 93.5616 347.68 93.1061C346.1 92.3861 346.13 91.1361 346.65 89.9661C341.5 90.3911 336.474 91.7713 331.83 94.0361C331.6 90.966 331.717 87.8798 332.18 84.8361C332.4 84.7761 332.62 84.7061 332.84 84.6361C334.202 84.2049 335.516 83.6317 336.76 82.9261C335.376 82.7424 334.083 82.1345 333.06 81.1861C333.9 78.7261 335.24 76.5961 337.35 75.5561C339.385 74.5605 341.611 74.014 343.877 73.9536C346.142 73.8932 348.394 74.3203 350.48 75.2061C350.48 75.2061 345.59 71.6361 347.39 70.1761C347.51 70.2961 347.63 70.4061 347.76 70.5161C347.93 70.656 348.12 70.8061 348.3 70.9461C349.41 71.8461 351.07 70.5761 351.29 69.2161C351.313 69.0443 351.347 68.874 351.39 68.7061C351.42 68.5661 351.46 68.4261 351.5 68.2961C351.534 68.1807 351.574 68.0672 351.62 67.9561C354.95 67.1561 365.02 70.4061 368.89 77.5661C368.89 77.5661 395.94 90.5661 372.08 118.816Z" fill="#3F3D56"/>
<path d="M363.728 324.376C363.394 322.073 363.973 319.731 365.34 317.848C366.707 315.965 368.755 314.689 371.048 314.293C371.516 314.22 371.988 314.186 372.462 314.19L396.569 258.208L413.106 270.624L380.907 323.658C380.736 325.618 379.92 327.467 378.587 328.914C377.255 330.362 375.481 331.328 373.541 331.661C372.436 331.84 371.307 331.8 370.217 331.542C369.127 331.285 368.099 330.815 367.191 330.16C366.283 329.505 365.513 328.678 364.924 327.725C364.336 326.773 363.941 325.713 363.762 324.608C363.749 324.531 363.738 324.454 363.728 324.376Z" fill="#6C63FF"/>
<path d="M296.197 328.939C297.819 327.271 298.726 325.035 298.725 322.708C298.724 320.381 297.815 318.146 296.191 316.479C295.856 316.145 295.493 315.84 295.108 315.566L308.462 256.095L287.786 256.436L282.712 318.271C281.7 319.959 281.275 321.934 281.504 323.888C281.733 325.842 282.602 327.666 283.976 329.074C284.765 329.868 285.703 330.498 286.737 330.93C287.77 331.361 288.878 331.585 289.998 331.588C291.117 331.591 292.227 331.373 293.262 330.947C294.298 330.522 295.239 329.896 296.033 329.107C296.088 329.052 296.143 328.996 296.197 328.939Z" fill="#6C63FF"/>
<path d="M429.443 229.385C426.443 233.385 422.443 228.875 426.443 234.635C429.193 238.595 413.433 275.715 403.343 298.455C398.783 308.745 395.373 316.095 395.373 316.095L378.363 306.245L376.373 305.095C376.373 305.095 391.973 265.835 396.993 251.725C397.823 249.385 398.373 247.735 398.503 247.075C399.443 242.385 399.563 238.365 398.503 236.875C398.252 236.32 398.038 235.749 397.863 235.165C395.853 229.275 389.733 209.385 384.003 190.575C382.333 185.055 380.683 179.635 379.183 174.685C375.333 161.975 372.443 152.385 372.443 152.385L395.443 153.385C395.443 153.385 395.823 154.025 396.493 155.185C398.093 157.945 401.373 163.635 405.173 170.475C407.913 175.395 410.933 180.925 413.783 186.365C421.043 200.205 427.293 213.535 425.443 215.385C421.443 219.385 417.353 217.115 422.393 222.245C427.443 227.385 432.443 225.385 429.443 229.385Z" fill="#F2F2F2"/>
<path d="M401.94 282.566C395.94 276.626 397.05 249.556 397.05 249.556C397.05 249.556 403.02 158.656 394.94 152.566C389.353 148.534 383.408 145.022 377.18 142.076C376.82 141.916 376.63 141.826 376.63 141.826L371.47 127.276L339.68 125.626L334.13 136.406C334.13 136.406 333.26 136.466 331.9 136.656C326.82 137.356 314.88 139.836 315.94 147.566C317.28 157.366 307.82 217.556 304.94 220.566C302.06 223.576 302.82 234.576 309.94 241.566C317.06 248.556 311.94 267.566 306.94 275.566C303.939 280.463 302.554 286.179 302.98 291.906C302.98 291.906 306.94 313.566 316.94 306.566C320.75 303.896 326.16 303.556 332.67 304.046C332.733 304.051 332.802 304.059 332.866 304.064L332.67 305.046C341.71 305.716 352.88 307.986 364.83 307.856L364.476 306.851C364.594 306.851 364.711 306.857 364.83 306.856C366.85 306.836 368.88 306.746 370.94 306.566C388.76 305.016 396.63 309.916 398.94 304.566C401.25 299.216 407.94 288.506 401.94 282.566Z" fill="#F2F2F2"/>
<path opacity="0.3" d="M354.373 127.095C370.941 127.095 384.373 113.664 384.373 97.0952C384.373 80.5267 370.941 67.0952 354.373 67.0952C337.804 67.0952 324.373 80.5267 324.373 97.0952C324.373 113.664 337.804 127.095 354.373 127.095Z" fill="#6C63FF"/>
<path d="M339.943 142.385C339.943 142.385 335.383 157.525 330.073 174.995C328.403 180.495 326.653 186.225 324.953 191.795C319.403 209.905 314.343 226.225 313.873 226.875C312.813 228.365 312.943 232.385 313.873 237.075C314.063 238.015 313.633 241.675 312.823 246.925C311.763 253.815 310.053 263.435 308.233 273.255C306.783 281.105 305.263 289.075 303.953 295.865C301.903 306.405 300.373 314.095 300.373 314.095H281.373C281.373 314.095 284.943 234.385 288.943 228.635C292.943 222.875 288.943 227.385 285.943 223.385C282.943 219.385 287.943 221.385 292.983 216.245C298.023 211.115 293.943 213.385 289.943 209.385C288.463 207.905 291.773 198.475 296.533 187.185C298.753 181.945 301.283 176.295 303.783 170.855C308.953 159.625 314.023 149.295 316.033 145.215C316.033 145.205 316.043 145.195 316.043 145.185L316.943 143.385L339.943 142.385Z" fill="#F2F2F2"/>
<path d="M381.373 146.095C360.494 154.205 341.722 155.603 326.373 146.095V128.095C344.45 138.942 362.79 138.645 381.373 128.095V146.095Z" fill="#3F3D56"/>
<path d="M397.373 261.095C365.105 269.205 336.094 270.603 312.373 261.095V243.095C340.31 253.942 368.654 253.645 397.373 243.095V261.095Z" fill="#3F3D56"/>
<path d="M402.943 408.565C402.773 409.765 402.523 413.845 402.233 419.785C390.185 421.737 377.941 422.187 365.783 421.125L362.083 403.285C374.54 405.56 387.291 405.722 399.803 403.765C402.623 405.045 403.743 402.965 402.943 408.565Z" fill="#3F3D56"/>
<path d="M338.513 427.175C328.26 429.457 317.839 430.908 307.353 431.515L302.123 423.765L301.003 415.075C312.79 415.379 324.556 413.923 335.913 410.755C334.953 415.095 334.273 418.035 334.273 418.035L338.513 427.175Z" fill="#3F3D56"/>
<path d="M341.373 184.095C341.373 186.748 340.319 189.291 338.444 191.166C336.568 193.042 334.025 194.095 331.373 194.095C328.721 194.095 326.177 193.042 324.302 191.166C322.426 189.291 321.373 186.748 321.373 184.095C321.373 178.573 330.373 167.095 331.373 174.095C332.373 181.095 341.373 178.573 341.373 184.095Z" fill="#6C63FF"/>
<path d="M332.46 167.14C332.1 167.11 331.74 167.1 331.37 167.1C327.017 167.105 322.831 168.778 319.673 171.775C316.515 174.771 314.624 178.863 314.39 183.21C314.38 183.5 314.37 183.8 314.37 184.1C314.37 184.51 314.38 184.91 314.42 185.31C314.671 188.87 316.038 192.26 318.325 194.999C320.612 197.739 323.703 199.688 327.161 200.572C330.618 201.455 334.266 201.227 337.587 199.92C340.907 198.613 343.732 196.293 345.66 193.29C346.047 192.697 346.395 192.079 346.7 191.44C347.902 188.933 348.471 186.169 348.355 183.39C348.24 180.612 347.445 177.904 346.039 175.505C344.633 173.106 342.659 171.089 340.292 169.63C337.924 168.172 335.235 167.317 332.46 167.14V167.14ZM344.2 193C342.632 194.886 340.672 196.409 338.456 197.462C336.241 198.515 333.823 199.074 331.37 199.1C327.717 199.095 324.192 197.759 321.453 195.342C318.714 192.925 316.95 189.594 316.49 185.97C316.41 185.35 316.369 184.725 316.37 184.1C316.368 184.013 316.372 183.926 316.38 183.84C316.449 179.909 318.058 176.162 320.861 173.405C323.665 170.649 327.438 169.103 331.37 169.1C331.46 169.34 331.55 169.57 331.65 169.79C335.92 179.89 345.18 179.13 346.37 184.1C346.946 186.503 346.596 189.034 345.39 191.19C345.051 191.829 344.653 192.435 344.2 193V193Z" fill="#6C63FF"/>
</svg>
