<svg id="Layer_1" data-name="Layer 1" xmlns="http://www.w3.org/2000/svg" viewBox="0 0 160.23 181.28"><defs><style>.cls-1{fill:#facc15;}</style></defs><path class="cls-1" d="M139.23,41.86a15.77,15.77,0,0,1-1.18,6l-1.67,3.08-4,7.36-26.8,49.18-1.13,2.09a9.81,9.81,0,0,1-17.8-5.7,9.06,9.06,0,0,1,.26-2.22l.55-1.68L101.9,56.31,25.82,51.37l-3.64-.23a25.69,25.69,0,1,1,9-50.56l2.43.65,92.87,25.05,2,.55A15.87,15.87,0,0,1,139.23,41.86Z"/><path class="cls-1" d="M21,139.42a15.77,15.77,0,0,1,1.18-6l1.68-3.08,4-7.36L54.66,73.8l1.14-2.09a9.8,9.8,0,0,1,17.79,5.7,9.42,9.42,0,0,1-.25,2.21l-.55,1.68L58.34,125l76.07,4.94,3.65.23a25.69,25.69,0,1,1-9,50.56l-2.43-.65L33.79,155l-2-.55A15.87,15.87,0,0,1,21,139.42Z"/></svg>