<svg width="669" height="559" viewBox="0 0 669 559" fill="none" xmlns="http://www.w3.org/2000/svg">
<path d="M314.231 559C460.15 559 578.44 552.955 578.44 545.497C578.44 538.04 460.15 531.995 314.231 531.995C168.313 531.995 50.0222 538.04 50.0222 545.497C50.0222 552.955 168.313 559 314.231 559Z" fill="#F2F2F2"/>
<path d="M468.593 129.735H465.592V47.5603C465.592 34.9466 460.578 22.8494 451.653 13.9301C442.729 5.01083 430.624 1.39265e-05 418.003 0H243.8C231.179 -2.38739e-05 219.074 5.01074 210.15 13.93C201.225 22.8493 196.211 34.9464 196.211 47.5601V498.375C196.211 510.989 201.225 523.086 210.149 532.005C219.074 540.924 231.179 545.935 243.8 545.935H418.003C430.624 545.935 442.728 540.925 451.653 532.005C460.578 523.086 465.592 510.989 465.592 498.375V188.228H468.593L468.593 129.735Z" fill="#3F3D56"/>
<path d="M455.463 47.8922V498.044C455.462 507.464 451.718 516.498 445.053 523.159C438.388 529.82 429.348 533.563 419.922 533.563H244.884C235.458 533.562 226.418 529.82 219.753 523.159C213.088 516.498 209.343 507.464 209.343 498.044V47.8922C209.343 38.472 213.088 29.4376 219.753 22.7766C226.418 16.1155 235.458 12.3732 244.884 12.373H266.118C265.074 14.9355 264.677 17.7149 264.961 20.4669C265.244 23.2188 266.2 25.8589 267.745 28.155C269.289 30.451 271.374 32.3327 273.817 33.6343C276.259 34.936 278.985 35.6178 281.753 35.6199H381.552C384.32 35.6178 387.045 34.936 389.488 33.6343C391.93 32.3326 394.015 30.451 395.56 28.1549C397.104 25.8589 398.06 23.2188 398.344 20.4669C398.627 17.7149 398.23 14.9355 397.186 12.373H419.922C429.348 12.3732 438.388 16.1155 445.053 22.7766C451.718 29.4376 455.462 38.472 455.463 47.8922Z" fill="white"/>
<path d="M399.074 241.995C397.91 242.603 396.727 243.178 395.523 243.721C394.427 244.216 393.314 244.681 392.183 245.116C391.77 245.274 391.35 245.431 390.93 245.589C387.606 246.793 384.193 247.734 380.722 248.402C379.003 248.739 377.261 249.004 375.497 249.197C374.041 249.362 372.57 249.479 371.084 249.549C370.026 249.602 368.967 249.624 367.901 249.624C363.68 249.626 359.469 249.232 355.322 248.447C354.24 248.252 353.182 248.019 352.124 247.764C347.005 246.538 342.049 244.71 337.36 242.318C336.939 242.108 336.519 241.883 336.099 241.665C335.476 241.335 334.868 240.99 334.26 240.63C334.552 240.225 334.868 239.828 335.19 239.437C338.703 235.087 343.093 231.526 348.074 228.985C353.056 226.444 358.518 224.981 364.103 224.691C369.688 224.401 375.272 225.29 380.491 227.301C385.709 229.312 390.445 232.399 394.39 236.362C395.759 237.735 397.028 239.204 398.188 240.758C398.495 241.163 398.788 241.575 399.074 241.995Z" fill="#445C64"/>
<path d="M369.399 209.044C387.602 209.044 402.358 194.297 402.358 176.105C402.358 157.914 387.602 143.167 369.399 143.167C351.197 143.167 336.441 157.914 336.441 176.105C336.441 194.297 351.197 209.044 369.399 209.044Z" fill="#2F2E41"/>
<path d="M378.165 209.09C390.053 202.596 394.422 187.701 387.923 175.82C381.425 163.94 366.521 159.574 354.633 166.068C342.746 172.563 338.377 187.458 344.875 199.338C351.374 211.219 366.278 215.585 378.165 209.09Z" fill="#A0616A"/>
<path d="M392.175 172.159C386.569 176.021 379.916 178.075 373.108 178.048C375.537 179.731 378.301 180.868 381.212 181.38C372.16 183.32 362.805 183.373 353.732 181.534C351.716 181.211 349.77 180.543 347.98 179.56C347.088 179.062 346.311 178.382 345.699 177.565C345.087 176.747 344.655 175.81 344.429 174.814C343.826 171.372 346.51 168.245 349.299 166.137C353.569 162.959 358.493 160.77 363.713 159.728C368.934 158.685 374.321 158.815 379.485 160.109C382.857 160.98 386.235 162.452 388.425 165.158C390.616 167.864 391.264 172.037 389.178 174.823L392.175 172.159Z" fill="#2F2E41"/>
<path d="M367.901 114.599C353.169 114.597 338.84 119.409 327.098 128.301C315.356 137.194 306.845 149.679 302.862 163.855C298.88 178.031 299.645 193.119 305.039 206.82C310.434 220.521 320.163 232.083 332.744 239.745L333.179 240C333.539 240.218 333.9 240.428 334.26 240.63C334.868 240.99 335.476 241.335 336.099 241.665C336.519 241.883 336.939 242.108 337.36 242.318C342.049 244.71 347.005 246.538 352.124 247.764C353.182 248.019 354.24 248.252 355.322 248.447C359.469 249.232 363.681 249.626 367.901 249.624C368.967 249.624 370.026 249.602 371.084 249.549C372.57 249.482 374.041 249.364 375.497 249.197C377.261 249.002 379.003 248.737 380.722 248.402C384.193 247.734 387.606 246.793 390.93 245.589C391.35 245.431 391.77 245.273 392.183 245.116C393.316 244.681 394.43 244.216 395.523 243.721C396.724 243.181 397.908 242.605 399.074 241.995C410.759 235.88 420.416 226.506 426.875 215.013C426.905 214.953 426.943 214.893 426.973 214.833C430.419 208.653 432.864 201.966 434.216 195.022C436.115 185.245 435.828 175.17 433.374 165.518C430.921 155.866 426.362 146.875 420.025 139.19C413.688 131.505 405.729 125.315 396.718 121.064C387.706 116.812 377.866 114.605 367.901 114.599H367.901ZM425.742 213.955C425.682 214.06 425.63 214.165 425.57 214.263C419.239 225.587 409.717 234.8 398.188 240.758C397.039 241.358 395.871 241.92 394.683 242.445C393.699 242.888 392.694 243.308 391.68 243.698C391.252 243.863 390.817 244.028 390.382 244.178C387.511 245.226 384.568 246.069 381.577 246.699C379.358 247.171 377.116 247.524 374.859 247.756C373.471 247.906 372.06 248.012 370.641 248.064C369.733 248.102 368.817 248.124 367.901 248.124C363.817 248.129 359.741 247.75 355.727 246.991C353.285 246.541 350.872 245.95 348.498 245.221C344.883 244.105 341.37 242.682 337.998 240.968C337.608 240.765 337.217 240.563 336.834 240.353C336.286 240.06 335.731 239.76 335.19 239.437C334.785 239.212 334.38 238.972 333.982 238.732C333.749 238.597 333.517 238.455 333.284 238.312C322.254 231.542 313.455 221.685 307.979 209.963C302.503 198.241 300.592 185.171 302.481 172.373C304.371 159.575 309.978 147.613 318.608 137.972C327.238 128.33 338.511 121.432 351.028 118.135C363.544 114.838 376.754 115.285 389.018 119.423C401.283 123.56 412.062 131.205 420.018 141.409C427.975 151.613 432.758 163.927 433.776 176.824C434.793 189.72 432 202.631 425.742 213.955H425.742Z" fill="#3F3D56"/>
<path d="M352.709 143.622C352.354 139.895 347.786 137.601 344.214 138.726C340.641 139.852 338.296 143.447 337.587 147.123C337.246 148.671 337.214 150.271 337.493 151.831C337.772 153.392 338.356 154.882 339.212 156.216C341.018 158.813 344.336 160.434 347.431 159.775C350.964 159.022 353.412 155.574 354.113 152.033C354.813 148.491 354.118 144.839 353.423 141.296L352.709 143.622Z" fill="#2F2E41"/>
<path d="M402.985 148.945C402.631 145.219 398.063 142.924 394.49 144.05C390.918 145.176 388.573 148.771 387.864 152.447C387.522 153.995 387.49 155.595 387.769 157.155C388.048 158.716 388.633 160.206 389.489 161.54C391.295 164.137 394.613 165.758 397.708 165.099C401.241 164.346 403.689 160.898 404.389 157.356C405.089 153.815 404.394 150.163 403.7 146.62L402.985 148.945Z" fill="#2F2E41"/>
<path d="M251.136 209.093C250.669 209.093 250.207 208.995 249.779 208.806C249.352 208.616 248.969 208.34 248.654 207.995L211.408 167.387C210.986 166.927 210.472 166.56 209.9 166.309C209.329 166.057 208.711 165.927 208.086 165.926H11.2659C8.279 165.923 5.41543 164.736 3.3034 162.625C1.19136 160.514 0.00335349 157.652 0 154.667V83.7322C0.0033515 80.7471 1.19136 77.8853 3.3034 75.7745C5.41543 73.6638 8.279 72.4765 11.2659 72.4731H266.261C269.248 72.4765 272.112 73.6638 274.224 75.7745C276.336 77.8853 277.524 80.7471 277.527 83.7322V154.667C277.524 157.652 276.336 160.514 274.224 162.625C272.112 164.736 269.248 165.923 266.261 165.926H259.032C257.837 165.928 256.692 166.403 255.847 167.247C255.002 168.092 254.526 169.237 254.525 170.431V205.712C254.528 206.393 254.323 207.059 253.939 207.622C253.554 208.184 253.007 208.616 252.371 208.86C251.977 209.014 251.559 209.093 251.136 209.093Z" fill="white"/>
<path d="M251.136 209.093C250.669 209.093 250.207 208.995 249.779 208.806C249.352 208.616 248.969 208.34 248.654 207.995L211.408 167.387C210.986 166.927 210.472 166.56 209.9 166.309C209.329 166.057 208.711 165.927 208.086 165.926H11.2659C8.279 165.923 5.41543 164.736 3.3034 162.625C1.19136 160.514 0.00335349 157.652 0 154.667V83.7322C0.0033515 80.7471 1.19136 77.8853 3.3034 75.7745C5.41543 73.6638 8.279 72.4765 11.2659 72.4731H266.261C269.248 72.4765 272.112 73.6638 274.224 75.7745C276.336 77.8853 277.524 80.7471 277.527 83.7322V154.667C277.524 157.652 276.336 160.514 274.224 162.625C272.112 164.736 269.248 165.923 266.261 165.926H259.032C257.837 165.928 256.692 166.403 255.847 167.247C255.002 168.092 254.526 169.237 254.525 170.431V205.712C254.528 206.393 254.323 207.059 253.939 207.622C253.554 208.184 253.007 208.616 252.371 208.86C251.977 209.014 251.559 209.093 251.136 209.093ZM11.2659 73.9734C8.67701 73.9763 6.19501 75.0054 4.36442 76.8349C2.53382 78.6644 1.50411 81.1449 1.50119 83.7322V154.667C1.50411 157.255 2.53383 159.735 4.36443 161.565C6.19503 163.394 8.67701 164.423 11.2659 164.426H208.086C208.919 164.427 209.742 164.601 210.505 164.936C211.267 165.271 211.952 165.76 212.515 166.373L249.761 206.981C250.017 207.26 250.351 207.455 250.719 207.54C251.088 207.626 251.474 207.599 251.826 207.462C252.179 207.325 252.482 207.084 252.696 206.772C252.909 206.46 253.024 206.091 253.024 205.712V170.431C253.026 168.839 253.659 167.313 254.786 166.187C255.912 165.061 257.439 164.428 259.032 164.426H266.261C268.85 164.423 271.332 163.394 273.163 161.565C274.993 159.735 276.023 157.255 276.026 154.667V83.7322C276.023 81.1449 274.993 78.6644 273.163 76.8349C271.332 75.0054 268.85 73.9763 266.261 73.9734H11.2659Z" fill="#3F3D56"/>
<path d="M27.634 103.765C33.0784 103.765 37.492 99.3537 37.492 93.9125C37.492 88.4714 33.0784 84.0604 27.634 84.0604C22.1895 84.0604 17.7759 88.4714 17.7759 93.9125C17.7759 99.3537 22.1895 103.765 27.634 103.765Z" fill="#445C64"/>
<path d="M254.76 148.428H22.7669C22.0759 148.428 21.3915 148.293 20.7529 148.029C20.1143 147.766 19.534 147.379 19.0451 146.891C18.5562 146.403 18.1684 145.823 17.9037 145.185C17.6391 144.548 17.5029 143.864 17.5029 143.173C17.5029 142.483 17.6391 141.799 17.9037 141.161C18.1684 140.523 18.5562 139.943 19.0451 139.455C19.534 138.967 20.1143 138.581 20.7529 138.317C21.3915 138.053 22.0759 137.918 22.7669 137.919H254.76C256.153 137.92 257.489 138.475 258.474 139.46C259.458 140.445 260.012 141.781 260.012 143.173C260.012 144.566 259.458 145.901 258.474 146.886C257.489 147.872 256.153 148.426 254.76 148.428Z" fill="#E6E6E6"/>
<path d="M179.182 126.096H22.7669C22.0759 126.097 21.3915 125.962 20.7529 125.698C20.1143 125.434 19.534 125.047 19.0451 124.559C18.5562 124.071 18.1684 123.492 17.9037 122.854C17.6391 122.216 17.5029 121.532 17.5029 120.842C17.5029 120.151 17.6391 119.467 17.9037 118.83C18.1684 118.192 18.5562 117.612 19.0451 117.124C19.534 116.636 20.1143 116.249 20.7529 115.985C21.3915 115.722 22.0759 115.586 22.7669 115.587H179.182C180.576 115.587 181.913 116.141 182.899 117.126C183.885 118.112 184.439 119.448 184.439 120.842C184.439 122.235 183.885 123.572 182.899 124.557C181.913 125.543 180.576 126.096 179.182 126.096Z" fill="#E6E6E6"/>
<path d="M416.629 449.655C415.993 449.411 415.446 448.979 415.061 448.416C414.676 447.854 414.472 447.188 414.475 446.507V411.226C414.474 410.032 413.998 408.887 413.153 408.042C412.308 407.198 411.163 406.723 409.968 406.721H402.739C399.752 406.718 396.888 405.531 394.776 403.42C392.664 401.309 391.476 398.447 391.473 395.462V324.527C391.476 321.542 392.664 318.68 394.776 316.569C396.888 314.459 399.752 313.271 402.739 313.268H657.734C660.721 313.271 663.585 314.459 665.697 316.569C667.809 318.68 668.997 321.542 669 324.527V395.462C668.997 398.447 667.809 401.309 665.697 403.42C663.585 405.531 660.721 406.718 657.734 406.721H460.914C460.289 406.722 459.671 406.852 459.099 407.104C458.528 407.355 458.014 407.722 457.591 408.182L420.345 448.79C420.031 449.135 419.648 449.411 419.22 449.6C418.793 449.79 418.331 449.888 417.864 449.888C417.441 449.888 417.023 449.808 416.629 449.655Z" fill="white"/>
<path d="M416.629 449.655C415.993 449.411 415.446 448.979 415.061 448.416C414.676 447.854 414.472 447.188 414.475 446.507V411.226C414.474 410.032 413.998 408.887 413.153 408.042C412.308 407.198 411.163 406.723 409.968 406.721H402.739C399.752 406.718 396.888 405.531 394.776 403.42C392.664 401.309 391.476 398.447 391.473 395.462V324.527C391.476 321.542 392.664 318.68 394.776 316.569C396.888 314.459 399.752 313.271 402.739 313.268H657.734C660.721 313.271 663.585 314.459 665.697 316.569C667.809 318.68 668.997 321.542 669 324.527V395.462C668.997 398.447 667.809 401.309 665.697 403.42C663.585 405.531 660.721 406.718 657.734 406.721H460.914C460.289 406.722 459.671 406.852 459.099 407.104C458.528 407.355 458.014 407.722 457.591 408.182L420.345 448.79C420.031 449.135 419.648 449.411 419.22 449.6C418.793 449.79 418.331 449.888 417.864 449.888C417.441 449.888 417.023 449.808 416.629 449.655ZM402.739 314.768C400.15 314.771 397.668 315.8 395.837 317.63C394.007 319.459 392.977 321.94 392.974 324.527V395.462C392.977 398.05 394.007 400.53 395.837 402.36C397.668 404.189 400.15 405.218 402.739 405.221H409.968C411.561 405.223 413.088 405.856 414.214 406.982C415.341 408.108 415.974 409.634 415.976 411.226V446.507C415.976 446.885 416.09 447.255 416.304 447.567C416.518 447.879 416.821 448.12 417.174 448.257C417.526 448.394 417.912 448.421 418.281 448.335C418.649 448.25 418.983 448.054 419.239 447.776L456.485 407.168C457.048 406.555 457.733 406.066 458.495 405.731C459.257 405.395 460.081 405.222 460.914 405.221H657.734C660.323 405.218 662.805 404.189 664.636 402.359C666.466 400.53 667.496 398.049 667.499 395.462V324.527C667.496 321.94 666.466 319.459 664.636 317.63C662.805 315.8 660.323 314.771 657.734 314.768H402.739Z" fill="#3F3D56"/>
<path d="M337.15 471.621C326.693 478.313 314.578 481.962 302.162 482.159C289.746 482.357 277.521 479.095 266.856 472.738C268.733 469.248 271.11 466.051 273.912 463.249C278.237 458.907 283.499 455.613 289.296 453.621C295.093 451.628 301.27 450.991 307.352 451.756C313.434 452.522 319.259 454.671 324.38 458.038C329.502 461.404 333.783 465.9 336.894 471.178C336.977 471.321 337.067 471.471 337.15 471.621Z" fill="#445C64"/>
<path d="M299.068 435.749C317.392 435.749 332.246 420.904 332.246 402.591C332.246 384.279 317.392 369.434 299.068 369.434C280.745 369.434 265.891 384.279 265.891 402.591C265.891 420.904 280.745 435.749 299.068 435.749Z" fill="#2F2E41"/>
<path d="M323.755 425.979C330.297 414.02 325.899 399.025 313.933 392.488C301.966 385.95 286.963 390.345 280.421 402.305C273.88 414.264 278.278 429.258 290.244 435.796C302.21 442.333 317.214 437.938 323.755 425.979Z" fill="#FFB8B8"/>
<path d="M276.142 398.619C281.784 402.506 288.482 404.574 295.335 404.547C292.89 406.241 290.107 407.385 287.178 407.901C296.289 409.854 305.706 409.907 314.84 408.056C316.87 407.731 318.829 407.059 320.63 406.069C321.528 405.568 322.31 404.883 322.926 404.06C323.542 403.237 323.978 402.294 324.205 401.291C324.812 397.826 322.11 394.678 319.302 392.557C315.004 389.358 310.048 387.154 304.792 386.105C299.537 385.055 294.114 385.186 288.915 386.488C285.521 387.365 282.121 388.847 279.916 391.571C277.711 394.295 277.058 398.495 279.159 401.301L276.142 398.619Z" fill="#2F2E41"/>
<path d="M301.099 482.918C284.85 482.913 269.148 477.053 256.873 466.414C244.598 455.774 236.573 441.068 234.269 424.994C231.966 408.919 235.539 392.553 244.333 378.898C253.127 365.244 266.552 355.215 282.146 350.653C297.74 346.091 314.457 347.3 329.231 354.06C344.005 360.82 355.845 372.676 362.579 387.455C369.313 402.233 370.49 418.942 365.894 434.518C361.297 450.093 351.236 463.491 337.556 472.252C326.676 479.224 314.022 482.926 301.099 482.918ZM301.099 349.393C288.033 349.392 275.26 353.263 264.396 360.516C253.532 367.77 245.064 378.081 240.064 390.144C235.063 402.208 233.754 415.483 236.303 428.29C238.852 441.097 245.143 452.86 254.382 462.094C263.621 471.327 275.392 477.615 288.207 480.162C301.021 482.709 314.304 481.401 326.375 476.404C338.446 471.406 348.762 462.943 356.021 452.086C363.279 441.228 367.152 428.463 367.151 415.405C367.131 397.904 360.166 381.125 347.783 368.749C335.4 356.374 318.611 349.413 301.099 349.393Z" fill="#3F3D56"/>
<path d="M423.196 343.809C428.641 343.809 433.055 339.398 433.055 333.957C433.055 328.516 428.641 324.105 423.196 324.105C417.752 324.105 413.338 328.516 413.338 333.957C413.338 339.398 417.752 343.809 423.196 343.809Z" fill="#445C64"/>
<path d="M650.323 388.472H418.33C417.639 388.473 416.954 388.338 416.316 388.074C415.677 387.811 415.097 387.424 414.608 386.936C414.119 386.448 413.731 385.868 413.466 385.23C413.202 384.592 413.066 383.909 413.066 383.218C413.066 382.527 413.202 381.844 413.466 381.206C413.731 380.568 414.119 379.988 414.608 379.5C415.097 379.012 415.677 378.625 416.316 378.362C416.954 378.098 417.639 377.963 418.33 377.964H650.323C651.717 377.964 653.055 378.517 654.041 379.502C655.027 380.488 655.581 381.824 655.581 383.218C655.581 384.612 655.027 385.948 654.041 386.933C653.055 387.919 651.717 388.472 650.323 388.472Z" fill="#E6E6E6"/>
<path d="M574.744 366.141H418.33C417.639 366.142 416.954 366.007 416.316 365.743C415.677 365.479 415.097 365.092 414.608 364.604C414.119 364.116 413.731 363.537 413.466 362.899C413.202 362.261 413.066 361.577 413.066 360.887C413.066 360.196 413.202 359.512 413.466 358.874C413.731 358.236 414.119 357.657 414.608 357.169C415.097 356.681 415.677 356.294 416.316 356.03C416.954 355.767 417.639 355.631 418.33 355.632H574.744C576.138 355.634 577.473 356.188 578.458 357.173C579.443 358.159 579.996 359.494 579.996 360.887C579.996 362.279 579.443 363.615 578.458 364.6C577.473 365.585 576.138 366.139 574.744 366.141Z" fill="#E6E6E6"/>
<path d="M416.312 456.37C426.47 456.37 434.704 455.457 434.704 454.33C434.704 453.204 426.47 452.29 416.312 452.29C406.154 452.29 397.919 453.204 397.919 454.33C397.919 455.457 406.154 456.37 416.312 456.37Z" fill="#F2F2F2"/>
<path d="M251.932 216.326C262.09 216.326 270.324 215.412 270.324 214.286C270.324 213.159 262.09 212.246 251.932 212.246C241.774 212.246 233.539 213.159 233.539 214.286C233.539 215.412 241.774 216.326 251.932 216.326Z" fill="#F2F2F2"/>
</svg>
