<svg width="607" height="570" viewBox="0 0 607 570" fill="none" xmlns="http://www.w3.org/2000/svg">
<g clip-path="url(#clip0_79_1664)">
<path d="M403.74 570H33.132C24.3479 569.991 15.9264 566.692 9.71507 560.828C3.50376 554.963 0.00991537 547.012 0 538.719V31.281C0.00991537 22.9876 3.50376 15.0366 9.71507 9.17235C15.9264 3.30805 24.3479 0.00936142 33.132 0H403.74C412.524 0.00934981 420.946 3.30803 427.157 9.17233C433.368 15.0366 436.862 22.9876 436.872 31.281V538.719C436.862 547.012 433.368 554.963 427.157 560.828C420.946 566.692 412.524 569.991 403.74 570Z" fill="#3F3D56"/>
<path d="M404.392 550.042H32.4796C29.7718 550.039 27.1759 549.022 25.2612 547.214C23.3465 545.407 22.2695 542.956 22.2664 540.399V29.6007C22.2695 27.0442 23.3465 24.5932 25.2612 22.7855C27.1759 20.9778 29.7718 19.9609 32.4796 19.958H404.392C407.1 19.9609 409.696 20.9778 411.611 22.7855C413.525 24.5932 414.602 27.0442 414.606 29.6007V540.399C414.602 542.956 413.525 545.407 411.611 547.214C409.696 549.022 407.1 550.039 404.392 550.042Z" fill="white"/>
<path d="M217.027 12.2408C218.583 12.2408 219.845 11.0494 219.845 9.57977C219.845 8.1101 218.583 6.9187 217.027 6.9187C215.47 6.9187 214.208 8.1101 214.208 9.57977C214.208 11.0494 215.47 12.2408 217.027 12.2408Z" fill="white"/>
<path d="M317.641 235.977L305.328 201.163L305.12 200.558L356.969 169.636L359.726 173.143L374.166 191.502L368.888 206.35L355.245 244.713L354.647 246.4L379.912 264.135C380.913 265.878 381.745 267.468 382.422 268.929C389.964 285.156 378.799 284.419 378.799 284.419L327.415 263.625L317.641 235.977Z" fill="#FFB7B7"/>
<path d="M344.843 242.459L342.578 236.05L331.46 204.589L329.145 198.03L327.199 192.542L352.552 177.418L379.049 161.621L396.245 183.486L391.033 198.147L388.5 205.271L384.584 216.29L376.726 238.384L401.991 256.119C403.903 259.284 405.412 262.651 406.488 266.15C406.927 267.611 407.135 269.124 407.106 270.642C407.147 271.419 407.013 272.196 406.713 272.92C406.413 273.645 405.953 274.301 405.365 274.845C404.776 275.39 404.072 275.81 403.299 276.079C402.526 276.348 401.701 276.458 400.879 276.404L349.494 255.609L344.843 242.459Z" fill="#FFB7B7"/>
<path opacity="0.15" d="M342.433 243.878L339.451 214.2L354.31 206.594L355.282 208.288L341.608 215.287L344.373 242.8L374.753 262.442L373.601 264.031L342.433 243.878Z" fill="black"/>
<path opacity="0.15" d="M374.845 242.884L373.633 244.433L404.291 265.82L405.503 264.271L374.845 242.884Z" fill="black"/>
<path d="M373.018 271.975L218.785 169.608L62.9775 271.021L216.461 332.212L373.018 271.975Z" fill="white"/>
<path d="M262.593 185.087L314.529 137.144L407.414 131.219L522.875 235.315L607 278.781L583.3 344.581L481.763 299.075C461.091 297.641 447.789 291.165 439.376 284.353C436.484 282.014 433.876 279.378 431.603 276.493C429.113 273.434 427.171 270.01 425.853 266.358L384.584 216.29L376.075 205.957L370.564 199.271L352.552 177.418L351.255 175.847L320.654 175.082L304.727 194.823L293.541 208.676C293.28 213.555 291.413 218.235 288.202 222.065C278.17 233.586 257.83 231.336 257.83 231.336L262.593 185.087Z" fill="#FFB7B7"/>
<path d="M63.5719 270.927H63.683L127.382 296.607L214.535 331.743C214.876 331.878 215.242 331.949 215.611 331.951C215.98 331.952 216.347 331.885 216.689 331.753L306.605 296.534L371.869 270.969L371.969 270.927H372.08C373.11 270.928 374.097 271.315 374.825 272.002C375.553 272.689 375.963 273.622 375.964 274.594V433.851C375.963 434.823 375.553 435.755 374.825 436.443C374.097 437.13 373.11 437.517 372.08 437.518H63.5719C62.5422 437.517 61.5549 437.13 60.8267 436.443C60.0986 435.755 59.689 434.823 59.6879 433.851V274.594C59.689 273.622 60.0986 272.689 60.8267 272.002C61.5549 271.315 62.5422 270.928 63.5719 270.927Z" fill="white"/>
<path d="M63.295 271.974C63.4083 271.975 63.5188 271.942 63.6117 271.881L217.066 170.981C217.533 170.675 218.088 170.512 218.656 170.513C219.225 170.514 219.779 170.679 220.245 170.986L372.594 271.88C372.714 271.959 372.863 271.99 373.008 271.966C373.153 271.942 373.281 271.864 373.366 271.751C373.45 271.637 373.483 271.497 373.458 271.36C373.433 271.223 373.351 271.102 373.231 271.022L220.882 170.128C220.23 169.698 219.454 169.467 218.658 169.466C217.863 169.465 217.086 169.694 216.432 170.121L62.9775 271.021C62.8806 271.084 62.8078 271.176 62.7696 271.281C62.7315 271.387 62.73 271.501 62.7654 271.608C62.8008 271.714 62.8713 271.807 62.9666 271.873C63.0618 271.939 63.1769 271.974 63.2951 271.974L63.295 271.974Z" fill="#3F3D56"/>
<path d="M363.888 275.551L218.505 173.824L72.0203 282.789L211.015 360.584L286.477 344.345L363.888 275.551Z" fill="#E6E6E6"/>
<path d="M280.107 408.635H351.93C352.819 408.635 353.672 408.302 354.302 407.709C354.931 407.116 355.285 406.311 355.286 405.472C355.288 404.632 354.936 403.826 354.309 403.231C353.681 402.636 352.829 402.301 351.94 402.299H280.107C279.218 402.299 278.365 402.631 277.735 403.225C277.106 403.818 276.752 404.623 276.75 405.462C276.749 406.302 277.101 407.108 277.728 407.702C278.356 408.297 279.208 408.633 280.097 408.635H280.107Z" fill="#445C64"/>
<path d="M326.161 395.014H351.93C352.819 395.015 353.672 394.682 354.301 394.088C354.931 393.495 355.285 392.691 355.286 391.851C355.288 391.011 354.936 390.206 354.308 389.611C353.681 389.016 352.829 388.68 351.94 388.678H326.161C325.272 388.678 324.419 389.011 323.79 389.604C323.16 390.197 322.806 391.002 322.805 391.842C322.803 392.681 323.155 393.487 323.783 394.082C324.41 394.677 325.262 395.012 326.152 395.014H326.161Z" fill="#445C64"/>
<path d="M216.461 332.212C217.007 332.212 217.548 332.112 218.053 331.917L307.715 296.792V186.845C307.714 185.873 307.304 184.941 306.576 184.254C305.848 183.566 304.861 183.179 303.831 183.178H131.821C130.791 183.179 129.804 183.566 129.076 184.254C128.348 184.941 127.938 185.873 127.937 186.845V296.869L128.105 296.937L214.821 331.9C215.34 332.106 215.898 332.212 216.461 332.212Z" fill="white"/>
<path d="M214.712 332.141L127.66 297.042V186.845C127.661 185.804 128.1 184.805 128.88 184.068C129.66 183.332 130.718 182.917 131.821 182.916H303.831C304.934 182.917 305.992 183.332 306.772 184.068C307.552 184.805 307.991 185.804 307.993 186.845V296.967L218.159 332.16C217.052 332.584 215.813 332.578 214.712 332.141H214.712ZM306.883 186.845C306.882 186.081 306.56 185.349 305.988 184.809C305.416 184.269 304.64 183.965 303.831 183.964H131.821C131.012 183.965 130.236 184.269 129.664 184.809C129.092 185.349 128.77 186.081 128.769 186.845V296.35L215.145 331.176C215.973 331.504 216.904 331.51 217.736 331.191L306.883 296.267L306.883 186.845Z" fill="#3F3D56"/>
<path d="M60.5203 274.594V433.851C60.5214 434.823 60.931 435.755 61.6592 436.443C62.3873 437.13 63.3746 437.517 64.4044 437.518H372.912C373.942 437.517 374.929 437.13 375.658 436.443C376.386 435.755 376.795 434.823 376.796 433.851V274.594C376.795 273.622 376.386 272.689 375.658 272.002C374.929 271.315 373.942 270.928 372.912 270.927H372.801L372.702 270.969L307.438 296.534L217.521 331.753C217.179 331.885 216.813 331.952 216.443 331.951C216.074 331.949 215.708 331.878 215.368 331.743L128.215 296.607L64.5155 270.927H64.4044C63.3746 270.928 62.3873 271.315 61.6592 272.002C60.931 272.689 60.5214 273.622 60.5203 274.594ZM61.63 274.594C61.6317 273.918 61.9094 273.268 62.4054 272.78C62.9015 272.292 63.5777 272.004 64.2933 271.974L128.215 297.744L214.93 332.707C215.894 333.089 216.979 333.095 217.948 332.723L307.438 297.665L373.018 271.974C373.735 272.002 374.413 272.289 374.91 272.778C375.407 273.266 375.686 273.916 375.687 274.594V433.851C375.686 434.545 375.394 435.211 374.874 435.703C374.354 436.194 373.648 436.47 372.912 436.47H64.4044C63.6686 436.47 62.9632 436.194 62.4429 435.703C61.9227 435.211 61.6303 434.545 61.63 433.851V274.594Z" fill="#3F3D56"/>
<path d="M146.879 224.277H207.915C209.092 224.277 210.221 223.835 211.054 223.049C211.886 222.263 212.354 221.197 212.354 220.086C212.354 218.974 211.886 217.908 211.054 217.122C210.221 216.336 209.092 215.895 207.915 215.895H146.879C145.702 215.895 144.573 216.336 143.74 217.122C142.908 217.908 142.44 218.974 142.44 220.086C142.44 221.197 142.908 222.263 143.74 223.049C144.573 223.835 145.702 224.277 146.879 224.277Z" fill="#445C64"/>
<path d="M146.916 206.465H176.324C177.501 206.465 178.63 206.024 179.463 205.238C180.295 204.452 180.763 203.386 180.763 202.274C180.763 201.163 180.295 200.097 179.463 199.311C178.63 198.525 177.501 198.083 176.324 198.083H146.916C145.738 198.083 144.609 198.525 143.777 199.311C142.944 200.097 142.477 201.163 142.477 202.274C142.477 203.386 142.944 204.452 143.777 205.238C144.609 206.024 145.738 206.465 146.916 206.465Z" fill="#445C64"/>
<path d="M172.176 266.187H265.394C266.571 266.187 267.701 265.745 268.533 264.959C269.365 264.173 269.833 263.107 269.833 261.996C269.833 260.884 269.365 259.818 268.533 259.032C267.701 258.246 266.571 257.805 265.394 257.805H172.176C170.999 257.805 169.87 258.246 169.037 259.032C168.205 259.818 167.737 260.884 167.737 261.996C167.737 263.107 168.205 264.173 169.037 264.959C169.87 265.745 170.999 266.187 172.176 266.187Z" fill="#CCCCCC"/>
<path d="M172.176 285.57H265.394C266.571 285.57 267.701 285.128 268.533 284.342C269.365 283.556 269.833 282.49 269.833 281.379C269.833 280.267 269.365 279.201 268.533 278.415C267.701 277.629 266.571 277.188 265.394 277.188H172.176C170.999 277.188 169.87 277.629 169.037 278.415C168.205 279.201 167.737 280.267 167.737 281.379C167.737 282.49 168.205 283.556 169.037 284.342C169.87 285.128 170.999 285.57 172.176 285.57Z" fill="#CCCCCC"/>
<path opacity="0.1" d="M388.5 205.271L407.014 204.26L480.991 290.336L454.856 286.561L439.377 284.353C436.484 282.014 433.876 279.378 431.603 276.493L414.403 271.672L406.487 266.15C406.984 267.944 388.5 205.271 388.5 205.271Z" fill="black"/>
<path d="M270.152 202.532C270.683 199.312 272.541 196.422 275.321 194.492C278.101 192.562 281.578 191.749 284.991 192.231L304.727 194.823L329.145 198.03L348.015 200.507L370.564 199.271L391.033 198.147L403.126 197.488L483.535 291.049L414.403 271.672L406.487 266.15L371.833 241.984C371.833 241.984 360.478 240.009 342.578 236.05C339.914 235.452 309.782 228.313 295.627 224.431C292.886 223.677 290.426 222.888 288.202 222.066C272.421 216.201 269.263 208.682 270.152 202.532Z" fill="#FFB7B7"/>
<path opacity="0.15" d="M281.456 214.22C281.526 214.212 288.571 213.384 291.578 208.513C293.604 205.232 293.4 200.813 290.972 195.38L292.852 194.632C295.545 200.66 295.707 205.661 293.332 209.496C289.8 215.199 282.017 216.098 281.688 216.133L281.456 214.22Z" fill="black"/>
<path opacity="0.15" d="M352.687 201.214L352.682 199.289L388.95 199.234L350.715 176.664L351.796 175.03L396.043 201.148L352.687 201.214Z" fill="black"/>
</g>
<defs>
<clipPath id="clip0_79_1664">
<rect width="607" height="570" fill="white"/>
</clipPath>
</defs>
</svg>
