<svg width="802" height="176" viewBox="0 0 802 176" fill="none" xmlns="http://www.w3.org/2000/svg">
<g clip-path="url(#clip0_392_3175)">
<path d="M43.0304 143.571C36.0126 143.571 29.0553 143.329 22.1585 142.905C19.9805 142.784 17.8026 142.603 15.5641 142.3C6.97334 141.393 0.5 134.193 0.5 125.541V30.856C0.5 22.1437 7.09434 14.8835 15.7456 14.0365C17.0766 13.9154 18.4681 13.7944 19.8595 13.6734C26.8773 13.1289 33.3507 12.8264 39.4005 12.8264C47.5073 12.8264 54.9487 13.4314 61.785 14.581C68.6213 15.7305 74.4897 17.7271 79.39 20.5707C84.2904 23.4142 88.1623 27.1049 90.8848 31.703C93.6677 36.3011 94.9987 41.9883 94.9987 48.7645C94.9987 53.4837 93.9097 57.7793 91.7922 61.5909C88.1623 68.1251 89.1303 76.1114 94.1517 81.6776C95.2407 82.8876 96.0876 84.0976 96.8741 85.4287C99.8385 90.6923 101.291 96.682 101.291 103.277C101.291 116.648 96.3901 126.751 86.6499 133.467C76.8491 140.183 62.3295 143.571 43.0304 143.571ZM28.5108 57.2348C28.5108 61.1674 31.7172 64.374 35.6496 64.374H42.486C51.3187 64.374 57.6711 63.2245 61.4825 60.9859C65.2939 58.6868 67.1693 55.0567 67.1693 50.0351C67.1693 44.8924 65.2334 41.2623 61.301 39.1447C57.3686 37.0877 51.6212 35.9986 43.9984 35.9986C41.518 35.9986 38.9165 36.0591 36.0731 36.1196C35.8916 36.1196 35.6496 36.1196 35.4681 36.1196C31.5962 36.2406 28.5108 39.3867 28.5108 43.2589V57.2348ZM28.5108 93.4754V112.776C28.5108 116.527 31.4752 119.673 35.2261 119.854H35.2866C37.7671 119.975 40.429 120.036 43.3934 120.036C51.9842 120.036 58.9416 118.826 64.2049 116.345C69.4683 113.865 72.1302 109.327 72.1302 102.732C72.1302 96.8635 69.8918 92.6284 65.4754 90.0873C61.059 87.5462 54.7067 86.3362 46.4789 86.3362H35.5891C31.7172 86.3362 28.5108 89.4823 28.5108 93.4754Z" fill="#6B7280"/>
<path d="M152.411 17.0616C152.411 22.0832 150.778 26.0763 147.511 28.9199C144.244 31.824 140.433 33.2761 136.016 33.2761C131.6 33.2761 127.728 31.824 124.521 28.9199C121.255 26.0158 119.621 22.0832 119.621 17.0616C119.621 12.0399 121.255 8.04677 124.521 5.20318C127.788 2.29909 131.6 0.847046 136.016 0.847046C140.433 0.847046 144.244 2.29909 147.511 5.20318C150.778 8.04677 152.411 12.0399 152.411 17.0616ZM141.522 141.937H130.692C126.094 141.937 122.404 138.247 122.404 133.649V53.3627C122.404 48.7645 126.094 45.0739 130.692 45.0739H141.522C146.119 45.0739 149.81 48.7645 149.81 53.3627V133.649C149.87 138.186 146.119 141.937 141.522 141.937Z" fill="#6B7280"/>
<path d="M181.995 19.7841L192.098 18.1506C197.362 17.3036 202.141 21.3572 202.141 26.6814V36.4222C202.141 41.2018 206.013 45.0739 210.792 45.0739H226.462C231.241 45.0739 235.113 48.9461 235.113 53.7257V59.2314C235.113 64.011 231.241 67.8832 226.462 67.8832H210.792C206.013 67.8832 202.141 71.7553 202.141 76.5349V101.946C202.141 107.693 203.17 112.352 205.166 115.74C207.163 119.189 211.276 120.883 217.387 120.883C220.351 120.883 223.376 120.58 226.522 120.036H226.643C231.362 119.189 235.96 122.395 236.807 127.115L237.654 131.773C238.44 136.19 235.778 140.425 231.483 141.695C230.333 141.998 229.184 142.3 227.974 142.603C223.921 143.571 218.96 144.055 213.031 144.055C205.529 144.055 199.358 143.027 194.458 141.03C189.557 139.033 185.625 136.19 182.661 132.56C179.696 128.93 177.639 124.573 176.49 119.37C175.34 114.228 174.735 108.48 174.735 102.248V28.3149C174.735 24.0798 177.821 20.4497 181.995 19.7841Z" fill="#6B7280"/>
<path d="M389.929 93.4754C389.929 85.9732 391.078 79.1365 393.317 72.9653C395.616 66.7941 398.882 61.4094 403.178 56.9323C407.473 52.4551 412.737 49.0065 419.028 46.5259C425.32 44.0454 432.399 42.8353 440.384 42.8353C443.712 42.8353 447.16 43.0168 450.79 43.3193C454.42 43.6218 457.989 44.0454 461.498 44.5294C465.007 45.0134 468.335 45.6184 471.541 46.2839C472.993 46.5864 474.385 46.889 475.655 47.252C478.196 47.857 480.011 50.1561 480.011 52.7576V170.373C480.011 173.519 477.47 176.06 474.324 176.06H458.292C455.146 176.06 452.605 173.519 452.605 170.373V147.625C452.605 143.873 449.036 141.151 445.406 142.119C444.619 142.361 443.833 142.542 443.046 142.724C439.719 143.45 436.15 143.813 432.338 143.813C418.605 143.813 408.078 139.275 400.818 130.261C393.498 121.185 389.929 108.964 389.929 93.4754ZM417.879 94.2014C417.879 111.747 424.413 120.52 437.42 120.52C440.263 120.52 443.046 120.157 445.829 119.431C446.918 119.128 447.886 118.826 448.794 118.463C451.032 117.616 452.545 115.498 452.545 113.139V72.1182C452.545 69.2141 450.306 66.7336 447.402 66.4916C445.285 66.3101 443.046 66.1891 440.566 66.1891C433.064 66.1891 427.438 68.7301 423.626 73.8123C419.815 78.955 417.879 85.7312 417.879 94.2014Z" fill="#6B7280"/>
<path d="M588.424 133.649C588.424 136.613 586.367 139.215 583.463 139.88C579.712 140.727 575.357 141.574 570.335 142.361C562.954 143.51 555.211 144.115 547.104 144.115C538.876 144.115 532.04 143.026 526.595 140.788C521.15 138.549 516.794 135.464 513.588 131.471C510.381 127.477 508.143 122.698 506.751 117.192C505.42 111.686 504.755 105.576 504.755 98.981V51.4871C504.755 47.9174 507.659 45.0739 511.168 45.0739H525.748C529.317 45.0739 532.161 47.9779 532.161 51.4871V95.7139C532.161 104.547 533.31 110.96 535.67 114.893C538.029 118.826 542.385 120.762 548.737 120.762C550.673 120.762 552.791 120.641 554.969 120.459C558.296 120.157 560.837 117.374 560.837 114.046V51.4871C560.837 47.9174 563.741 45.0739 567.25 45.0739H581.83C585.399 45.0739 588.243 47.9779 588.243 51.4871L588.424 133.649Z" fill="#6B7280"/>
<path d="M649.044 42.4723C657.151 42.4723 663.927 43.3798 669.311 45.2554C674.695 47.0704 679.051 49.7325 682.318 53.1811C685.585 56.6297 687.884 60.8044 689.215 65.705C690.546 70.6057 691.211 76.1113 691.211 82.101V137.521C691.211 138.489 690.546 139.336 689.578 139.517C685.827 140.304 680.866 141.211 674.816 142.24C667.799 143.389 659.329 143.994 649.407 143.994C643.176 143.994 637.489 143.45 632.347 142.361C627.265 141.272 622.848 139.457 619.158 136.916C615.467 134.375 612.624 131.108 610.688 127.054C608.752 123 607.724 118.039 607.724 112.11C607.724 106.483 608.873 101.704 611.112 97.771C613.41 93.8384 616.435 90.6923 620.247 88.3932C624.058 86.0337 628.414 84.4001 633.314 83.3111C638.215 82.2825 643.297 81.738 648.621 81.738C652.19 81.738 655.336 81.9195 658.119 82.222C659.692 82.4035 661.144 82.585 662.414 82.827C663.685 83.0691 664.895 82.101 664.895 80.8305C664.895 76.1718 663.503 72.4207 660.66 69.5771C657.816 66.7336 652.916 65.342 645.898 65.342C641.24 65.342 636.642 65.705 632.104 66.3705C628.535 66.9151 625.389 67.5806 622.606 68.4881C621.396 68.8511 620.186 68.1251 619.944 66.8546L617.101 48.946C616.919 47.9175 617.585 46.9494 618.613 46.6469C619.823 46.2839 621.275 45.9814 622.848 45.6184C625.268 45.0739 627.87 44.5899 630.653 44.1663C633.496 43.7428 636.46 43.3798 639.606 43.0773C642.692 42.6538 645.838 42.4723 649.044 42.4723ZM651.222 122.758C653.944 122.758 656.485 122.698 658.966 122.577C660.539 122.516 661.87 122.395 663.019 122.274C664.048 122.153 664.834 121.306 664.834 120.217V102.914C664.834 101.885 664.108 101.038 663.14 100.917C662.233 100.796 661.144 100.615 659.873 100.494C657.635 100.252 655.638 100.131 653.823 100.131C651.222 100.131 648.802 100.312 646.564 100.615C644.265 100.917 642.268 101.522 640.574 102.369C638.88 103.216 637.489 104.366 636.521 105.878C635.553 107.33 635.069 109.206 635.069 111.384C635.069 115.68 636.521 118.644 639.425 120.338C642.208 121.972 646.201 122.758 651.222 122.758Z" fill="#6B7280"/>
<path d="M801.5 134.435C801.5 137.037 799.685 139.336 797.144 139.941C795.813 140.243 794.482 140.606 793.031 140.909C789.824 141.574 786.497 142.179 782.988 142.663C779.479 143.147 775.909 143.571 772.279 143.873C768.65 144.176 765.201 144.358 761.874 144.358C753.888 144.358 746.749 143.208 740.518 140.848C734.286 138.489 728.963 135.161 724.667 130.805C720.372 126.449 717.105 121.185 714.806 114.954C712.507 108.782 711.418 101.764 711.418 94.0804C711.418 86.2152 712.386 79.1365 714.382 72.7838C716.318 66.4311 719.162 61.1069 722.852 56.6903C726.543 52.2736 731.02 48.8855 736.404 46.5864C741.728 44.2269 747.838 43.0773 754.735 43.0773C758.546 43.0773 761.934 43.4403 764.959 44.1664C765.564 44.2874 766.169 44.4689 766.774 44.6504C770.404 45.6789 774.094 43.0168 774.094 39.2657V8.28875C774.094 5.50566 776.091 3.14609 778.874 2.66207L794.966 0.0604894C798.415 -0.484028 801.561 2.17806 801.561 5.68716V134.435H801.5ZM739.429 92.7494C739.429 101.22 741.304 108.056 745.116 113.199C748.927 118.342 754.553 120.943 762.055 120.943C764.536 120.943 766.774 120.822 768.892 120.641C771.796 120.399 774.034 117.918 774.034 115.014V73.6308C774.034 71.2712 772.522 69.1536 770.283 68.3066C769.376 67.9436 768.347 67.6411 767.319 67.3386C764.536 66.6126 761.753 66.2496 758.909 66.2496C745.963 66.2496 739.429 75.0828 739.429 92.7494Z" fill="#6B7280"/>
<g clip-path="url(#clip1_392_3175)">
<path d="M364.931 47.7715C364.931 49.54 364.599 51.2533 363.934 52.856L362.551 55.4535L359.174 61.6433L336.591 103.037L335.65 104.806C334.155 106.906 331.72 108.288 328.897 108.288C324.358 108.288 320.594 104.585 320.594 99.9978C320.594 99.3346 320.649 98.7267 320.816 98.1188L321.258 96.6819L333.436 59.93L269.228 55.7851L266.128 55.564C255.611 54.1271 247.475 45.0635 247.475 34.1208C247.475 22.1834 257.161 12.5118 269.117 12.5118C270.722 12.5118 272.217 12.6776 273.711 13.0092L275.759 13.5619L354.137 34.6182L355.853 35.0603C361.112 36.8841 364.931 41.8581 364.931 47.7715Z" fill="#37D2F4"/>
<path d="M265.188 129.952C265.188 128.183 265.52 126.47 266.184 124.868L267.568 122.27L270.944 116.08L293.528 74.6861L294.469 72.9175C295.963 70.8174 298.398 69.4358 301.221 69.4358C305.76 69.4358 309.524 73.1386 309.524 77.7257C309.524 78.3889 309.469 78.9968 309.303 79.6047L308.86 81.0416L296.683 117.793L360.835 121.938L363.935 122.16C374.507 123.596 382.644 132.66 382.644 143.603C382.644 155.54 372.957 165.212 361.001 165.212C359.396 165.212 357.902 165.046 356.407 164.714L354.359 164.162L275.981 143.05L274.265 142.608C269.007 140.784 265.188 135.81 265.188 129.952Z" fill="#37D2F4"/>
</g>
</g>
<defs>
<clipPath id="clip0_392_3175">
<rect width="801" height="176" fill="white" transform="translate(0.5)"/>
</clipPath>
<clipPath id="clip1_392_3175">
<rect width="135.169" height="152.645" fill="white" transform="translate(247.475 12.5118)"/>
</clipPath>
</defs>
</svg>
