<svg width="61" height="59" viewBox="0 0 61 59" fill="none" xmlns="http://www.w3.org/2000/svg">
<path d="M30.427 31.0578C30.1949 31.3658 29.9993 31.6192 29.811 31.8754C26.808 36.0018 23.8059 40.1277 20.8048 44.2532C18.0129 48.0907 15.2181 51.9259 12.4204 55.7588C12.374 55.819 12.3145 55.8694 12.2459 55.9068C12.1772 55.9441 12.1009 55.9675 12.0219 55.9755C8.07203 55.9437 4.12311 55.9037 0.175162 55.8556C0.131371 55.8556 0.0861211 55.8433 0 55.8311C0.0318869 55.754 0.0689388 55.6789 0.110936 55.6062C2.86584 51.6188 5.62074 47.6324 8.37564 43.6468C10.8191 40.1146 13.2641 36.5832 15.7105 33.0528C18.4216 29.13 21.1313 25.2044 23.8395 21.276C24.2394 20.6969 24.6554 20.1286 25.035 19.5385C25.1323 19.3806 25.1615 19.194 25.1167 19.0166C24.3869 16.8444 23.6424 14.6776 22.8995 12.5109C22.5812 11.5828 22.2484 10.6603 21.9507 9.72679C21.8543 9.42698 21.6952 9.33568 21.3668 9.33704C18.8853 9.34658 16.4185 9.34385 13.9443 9.34385C13.4743 9.34385 13.4728 9.34385 13.4728 8.9105C13.4728 6.07055 13.4728 3.2306 13.4641 0.390641C13.4641 0.074485 13.575 0.00362241 13.8932 0.00362241C18.8746 0.0117989 23.857 0.0117989 28.8403 0.00362241C28.9561 -0.0101938 29.0732 0.0157955 29.1699 0.0767354C29.2666 0.137675 29.3363 0.229398 29.3658 0.334769C31.9932 6.50436 34.6207 12.6717 37.2481 18.8367C40.3134 26.0265 43.3787 33.2173 46.4441 40.4089C47.3958 42.6411 48.3548 44.8719 49.2963 47.1095C49.4087 47.3821 49.5255 47.4339 49.8203 47.3494C52.4317 46.5958 55.0489 45.8626 57.6588 45.1077C57.9872 45.0123 58.1069 45.0763 58.2091 45.3802C59.0995 47.9926 60.0074 50.5995 60.9095 53.2092C60.9402 53.2991 60.9635 53.3904 61 53.5158C60.8132 53.5798 60.638 53.652 60.4585 53.6984C54.5224 55.4545 48.5898 57.2115 42.6606 58.9695C42.3774 59.0526 42.2927 58.9627 42.1979 58.7405C40.3869 54.4561 38.5715 50.1734 36.7518 45.8926C34.972 41.7008 33.1912 37.509 31.4094 33.3172C31.1423 32.6876 30.8795 32.0553 30.6124 31.4257C30.5701 31.3181 30.5117 31.224 30.427 31.0578Z" fill="#FA7E14"/>
</svg>
