<svg width="31" height="31" viewBox="0 0 31 31" fill="none" xmlns="http://www.w3.org/2000/svg">
<path d="M27.024 0.444336H3.45257C1.67801 0.444336 0.238281 1.88407 0.238281 3.65862V27.23C0.238281 29.0046 1.67801 30.4443 3.45257 30.4443H27.024C28.7985 30.4443 30.2383 29.0046 30.2383 27.23V3.65862C30.2383 1.88407 28.7985 0.444336 27.024 0.444336ZM23.7494 11.0783C23.7628 11.2658 23.7628 11.46 23.7628 11.6475C23.7628 17.4533 19.3432 24.143 11.2673 24.143C8.77623 24.143 6.46596 23.4198 4.524 22.1742C4.87891 22.2144 5.22042 22.2278 5.58203 22.2278C7.63784 22.2278 9.52623 21.5314 11.0329 20.3528C9.10435 20.3126 7.48382 19.047 6.92801 17.3059C7.60435 17.4064 8.21373 17.4064 8.91016 17.2256C6.90123 16.8171 5.39453 15.0492 5.39453 12.9131V12.8595C5.97712 13.1876 6.66016 13.3885 7.37667 13.4153C6.77428 13.0146 6.28046 12.471 5.93927 11.8331C5.59807 11.1951 5.42013 10.4826 5.42132 9.75907C5.42132 8.9421 5.6356 8.1921 6.0173 7.54255C8.18025 10.2077 11.428 11.9488 15.0709 12.1363C14.4481 9.15639 16.678 6.73898 19.3566 6.73898C20.6222 6.73898 21.7606 7.268 22.5642 8.12514C23.5552 7.93764 24.5061 7.56934 25.3499 7.0671C25.0218 8.08496 24.332 8.9421 23.4213 9.48451C24.3052 9.39076 25.1624 9.143 25.9526 8.80148C25.3566 9.67871 24.6066 10.4555 23.7494 11.0783Z" fill="#6B7280"/>
</svg>
