<svg width="31" height="31" viewBox="0 0 31 31" fill="none" xmlns="http://www.w3.org/2000/svg">
<path d="M15.2383 11.8725C14.5319 11.8727 13.8414 12.0824 13.2542 12.4751C12.667 12.8677 12.2094 13.4257 11.9393 14.0784C11.6691 14.7311 11.5986 15.4492 11.7365 16.142C11.8745 16.8348 12.2148 17.4711 12.7144 17.9705C13.214 18.4699 13.8504 18.81 14.5433 18.9477C15.2361 19.0854 15.9542 19.0146 16.6068 18.7442C17.2594 18.4738 17.8172 18.016 18.2096 17.4286C18.602 16.8413 18.8115 16.1507 18.8115 15.4443C18.8108 14.497 18.4341 13.5887 17.7641 12.9189C17.0941 12.2492 16.1856 11.8728 15.2383 11.8725ZM23.5894 9.12693C23.4076 8.66611 23.133 8.24756 22.7827 7.89726C22.4324 7.54696 22.0138 7.27238 21.553 7.09054C20.1468 6.53541 16.7985 6.65996 15.2383 6.65996C13.678 6.65996 10.3331 6.53072 8.92288 7.09054C8.46206 7.27238 8.04352 7.54696 7.69322 7.89726C7.34292 8.24756 7.06833 8.66611 6.8865 9.12693C6.33203 10.5332 6.45591 13.8847 6.45591 15.4437C6.45591 17.0026 6.33203 20.3501 6.88917 21.7611C7.07101 22.2219 7.3456 22.6404 7.6959 22.9907C8.0462 23.341 8.46474 23.6156 8.92556 23.7975C10.3318 24.3526 13.68 24.228 15.241 24.228C16.8019 24.228 20.1454 24.3573 21.5557 23.7975C22.0165 23.6156 22.4351 23.341 22.7854 22.9907C23.1357 22.6404 23.4102 22.2219 23.5921 21.7611C24.1512 20.3548 24.0227 17.0033 24.0227 15.4443C24.0227 13.8854 24.1512 10.5385 23.5921 9.12759L23.5894 9.12693ZM15.2383 20.9354C14.1522 20.9354 13.0906 20.6134 12.1876 20.01C11.2846 19.4066 10.5808 18.549 10.1652 17.5457C9.74959 16.5423 9.64084 15.4382 9.85272 14.3731C10.0646 13.3079 10.5876 12.3295 11.3555 11.5616C12.1234 10.7936 13.1019 10.2706 14.167 10.0588C15.2322 9.8469 16.3363 9.95564 17.3396 10.3712C18.343 10.7869 19.2006 11.4907 19.8039 12.3937C20.4073 13.2967 20.7294 14.3583 20.7294 15.4443C20.7302 16.1657 20.5888 16.8801 20.3132 17.5467C20.0375 18.2133 19.6331 18.819 19.123 19.3291C18.613 19.8391 18.0073 20.2436 17.3407 20.5192C16.6741 20.7949 15.9596 20.9363 15.2383 20.9354ZM20.9557 11.0046C20.7022 11.0047 20.4543 10.9297 20.2434 10.7889C20.0326 10.6482 19.8682 10.448 19.7711 10.2139C19.674 9.97967 19.6485 9.72194 19.6979 9.47327C19.7472 9.2246 19.8693 8.99616 20.0485 8.81685C20.2277 8.63753 20.4561 8.5154 20.7047 8.46589C20.9534 8.41638 21.2111 8.44172 21.4454 8.53871C21.6796 8.6357 21.8798 8.79998 22.0207 9.01077C22.1615 9.22155 22.2367 9.46938 22.2367 9.72291C22.2374 9.89126 22.2049 10.0581 22.141 10.2139C22.077 10.3696 21.983 10.5112 21.8642 10.6305C21.7455 10.7499 21.6043 10.8446 21.4489 10.9092C21.2934 10.9739 21.1267 11.0072 20.9584 11.0073L20.9557 11.0046ZM27.024 0.444336H3.45257C2.60009 0.444336 1.78252 0.782983 1.17972 1.38578C0.576928 1.98857 0.238281 2.80614 0.238281 3.65862L0.238281 27.23C0.238281 28.0825 0.576928 28.9001 1.17972 29.5029C1.78252 30.1057 2.60009 30.4443 3.45257 30.4443H27.024C27.8765 30.4443 28.694 30.1057 29.2968 29.5029C29.8996 28.9001 30.2383 28.0825 30.2383 27.23V3.65862C30.2383 2.80614 29.8996 1.98857 29.2968 1.38578C28.694 0.782983 27.8765 0.444336 27.024 0.444336ZM25.8776 19.864C25.7912 21.5803 25.3994 23.101 24.1465 24.3506C22.8936 25.6001 21.3742 25.9999 19.6599 26.0816C17.8914 26.1814 12.5892 26.1814 10.8206 26.0816C9.10435 25.9952 7.58895 25.6028 6.33404 24.3506C5.07913 23.0984 4.68471 21.5769 4.60301 19.864C4.50324 18.0948 4.50324 12.7919 4.60301 11.0247C4.6894 9.3084 5.07645 7.78764 6.33404 6.53809C7.59163 5.28853 9.11105 4.89344 10.8206 4.81175C12.5892 4.71197 17.8914 4.71197 19.6599 4.81175C21.3762 4.89813 22.8963 5.29054 24.1465 6.54277C25.3968 7.79501 25.7959 9.31643 25.8776 11.0327C25.9773 12.7952 25.9773 18.0934 25.8776 19.864Z" fill="#6B7280"/>
</svg>
