<svg width="31" height="31" viewBox="0 0 31 31" fill="none" xmlns="http://www.w3.org/2000/svg">
<path d="M27.024 0.444336H3.45257C2.60009 0.444336 1.78252 0.782983 1.17972 1.38578C0.576928 1.98857 0.238281 2.80614 0.238281 3.65862L0.238281 27.23C0.238281 28.0825 0.576928 28.9001 1.17972 29.5029C1.78252 30.1057 2.60009 30.4443 3.45257 30.4443H12.6434V20.245H8.42466V15.4443H12.6434V11.7854C12.6434 7.62358 15.1211 5.32469 18.916 5.32469C20.7334 5.32469 22.6338 5.6488 22.6338 5.6488V9.73362H20.5398C18.4767 9.73362 17.8331 11.014 17.8331 12.3271V15.4443H22.4389L21.7023 20.245H17.8331V30.4443H27.024C27.8765 30.4443 28.694 30.1057 29.2968 29.5029C29.8996 28.9001 30.2383 28.0825 30.2383 27.23V3.65862C30.2383 2.80614 29.8996 1.98857 29.2968 1.38578C28.694 0.782983 27.8765 0.444336 27.024 0.444336Z" fill="#6B7280"/>
</svg>
