<svg width="31" height="31" viewBox="0 0 31 31" fill="none" xmlns="http://www.w3.org/2000/svg">
<path d="M12.7472 11.835L19.1222 15.4577L12.7472 19.0805V11.835ZM30.2383 3.65862V27.23C30.2383 29.0046 28.7985 30.4443 27.024 30.4443H3.45257C1.67801 30.4443 0.238281 29.0046 0.238281 27.23V3.65862C0.238281 1.88407 1.67801 0.444336 3.45257 0.444336H27.024C28.7985 0.444336 30.2383 1.88407 30.2383 3.65862ZM27.4258 15.4644C27.4258 15.4644 27.4258 11.4734 26.9169 9.55818C26.6356 8.50014 25.8119 7.66978 24.7606 7.38853C22.8655 6.87291 15.2383 6.87291 15.2383 6.87291C15.2383 6.87291 7.61105 6.87291 5.71596 7.38853C4.66462 7.66978 3.84096 8.50014 3.55971 9.55818C3.05078 11.4667 3.05078 15.4644 3.05078 15.4644C3.05078 15.4644 3.05078 19.4555 3.55971 21.3707C3.84096 22.4287 4.66462 23.2256 5.71596 23.5068C7.61105 24.0158 15.2383 24.0158 15.2383 24.0158C15.2383 24.0158 22.8655 24.0158 24.7606 23.5001C25.8119 23.2189 26.6356 22.422 26.9169 21.364C27.4258 19.4555 27.4258 15.4644 27.4258 15.4644Z" fill="#6B7280"/>
</svg>
