<svg width="31" height="31" viewBox="0 0 31 31" fill="none" xmlns="http://www.w3.org/2000/svg">
<path d="M28.0954 0.444336H2.37444C1.19587 0.444336 0.238281 1.41532 0.238281 2.60728V28.2814C0.238281 29.4734 1.19587 30.4443 2.37444 30.4443H28.0954C29.274 30.4443 30.2383 29.4734 30.2383 28.2814V2.60728C30.2383 1.41532 29.274 0.444336 28.0954 0.444336ZM9.30524 26.1586H4.85882V11.8417H9.31194V26.1586H9.30524ZM7.08203 9.8863C5.65569 9.8863 4.50391 8.72782 4.50391 7.30818C4.50391 5.88853 5.65569 4.73005 7.08203 4.73005C8.50167 4.73005 9.66016 5.88853 9.66016 7.30818C9.66016 8.73451 8.50837 9.8863 7.08203 9.8863ZM25.9727 26.1586H21.5262V19.1943C21.5262 17.5336 21.4927 15.3975 19.216 15.3975C16.899 15.3975 16.5441 17.2055 16.5441 19.0738V26.1586H12.0977V11.8417H16.3633V13.797H16.4235C17.0195 12.672 18.4727 11.4867 20.6356 11.4867C25.1356 11.4867 25.9727 14.4533 25.9727 18.3104V26.1586Z" fill="#6B7280"/>
</svg>
