<svg width="30" height="31" viewBox="0 0 30 31" fill="none" xmlns="http://www.w3.org/2000/svg">
<path d="M12.4888 17.7619C12.4888 19.0543 11.5513 19.4627 10.3996 19.4627H7.37946V15.9203H10.4598C11.7054 15.927 12.4888 16.4427 12.4888 17.7619ZM11.9732 12.2507C11.9732 11.0654 11.0558 10.7842 10.0379 10.7842H7.38616V13.7842H10.2455C11.2567 13.7842 11.9732 13.3422 11.9732 12.2507ZM20.8326 13.8043C19.6071 13.8043 18.7902 14.5677 18.7098 15.7931H22.875C22.7612 14.5543 22.1183 13.8043 20.8326 13.8043ZM30 3.49847V27.0699C30 28.8444 28.5603 30.2842 26.7857 30.2842H3.21429C1.43973 30.2842 0 28.8444 0 27.0699V3.49847C0 1.72391 1.43973 0.28418 3.21429 0.28418H26.7857C28.5603 0.28418 30 1.72391 30 3.49847ZM18.1942 10.5297H23.404V9.26409H18.1942V10.5297ZM15.3147 17.9159C15.3147 16.302 14.5513 14.9092 12.971 14.4605C14.1228 13.9114 14.7254 13.2753 14.7254 11.9828C14.7254 9.4248 12.817 8.80204 10.6138 8.80204H4.55357V21.6592H10.7879C13.125 21.6458 15.3147 20.5275 15.3147 17.9159ZM25.4464 16.9248C25.4464 14.1726 23.8326 11.8757 20.9196 11.8757C18.0804 11.8757 16.1585 14.0052 16.1585 16.8043C16.1585 19.7038 17.9866 21.6927 20.9196 21.6927C23.1429 21.6927 24.5826 20.6949 25.279 18.5587H23.0223C22.7746 19.3556 21.7768 19.7708 21 19.7708C19.5 19.7708 18.7165 18.8936 18.7165 17.4069H25.4263C25.433 17.2529 25.4464 17.0855 25.4464 16.9248Z" fill="#6B7280"/>
</svg>
