<svg width="30" height="31" viewBox="0 0 30 31" fill="none" xmlns="http://www.w3.org/2000/svg">
<path d="M26.7857 0.28418H3.21429C1.43973 0.28418 0 1.72391 0 3.49847V27.0699C0 28.8444 1.43973 30.2842 3.21429 30.2842H26.7857C28.5603 30.2842 30 28.8444 30 27.0699V3.49847C30 1.72391 28.5603 0.28418 26.7857 0.28418ZM18.5692 25.9784C18.0067 26.0788 17.7991 25.7306 17.7991 25.4427C17.7991 25.0811 17.8125 23.2328 17.8125 21.7395C17.8125 20.6949 17.4643 20.0319 17.0558 19.6837C19.5335 19.4092 22.1451 19.0677 22.1451 14.7886C22.1451 13.5699 21.7098 12.9605 21 12.177C21.1138 11.8891 21.4955 10.7038 20.8862 9.16364C19.9554 8.8757 17.8259 10.3623 17.8259 10.3623C16.942 10.1145 15.9844 9.9873 15.0402 9.9873C14.096 9.9873 13.1384 10.1145 12.2545 10.3623C12.2545 10.3623 10.125 8.8757 9.1942 9.16364C8.58482 10.6971 8.95982 11.8824 9.08036 12.177C8.37054 12.9605 8.03571 13.5699 8.03571 14.7886C8.03571 19.0476 10.5335 19.4092 13.0112 19.6837C12.6897 19.9717 12.4018 20.4672 12.3013 21.177C11.6652 21.465 10.0379 21.9605 9.06696 20.2462C8.45759 19.1882 7.35938 19.1011 7.35938 19.1011C6.27455 19.0878 7.28571 19.7842 7.28571 19.7842C8.00893 20.119 8.51786 21.4047 8.51786 21.4047C9.16741 23.3936 12.2746 22.7239 12.2746 22.7239C12.2746 23.6547 12.2879 25.1681 12.2879 25.4427C12.2879 25.7306 12.0871 26.0788 11.5179 25.9784C7.09821 24.4985 4.00446 20.2931 4.00446 15.3779C4.00446 9.23061 8.70536 4.5632 14.8527 4.5632C21 4.5632 25.9821 9.23061 25.9821 15.3779C25.9888 20.2931 22.9888 24.5052 18.5692 25.9784ZM12 21.8869C11.8728 21.9136 11.7522 21.8601 11.7388 21.773C11.7254 21.6726 11.8125 21.5855 11.9397 21.5587C12.067 21.5453 12.1875 21.5989 12.2009 21.686C12.221 21.773 12.1339 21.8601 12 21.8869ZM11.3638 21.8266C11.3638 21.9136 11.2634 21.9873 11.1295 21.9873C10.9821 22.0007 10.8817 21.927 10.8817 21.8266C10.8817 21.7395 10.9821 21.6659 11.1161 21.6659C11.2433 21.6525 11.3638 21.7261 11.3638 21.8266ZM10.4464 21.7529C10.4196 21.84 10.2857 21.8802 10.1719 21.84C10.0446 21.8132 9.95759 21.7128 9.98438 21.6257C10.0112 21.5386 10.1451 21.4985 10.2589 21.5253C10.3929 21.5654 10.4799 21.6659 10.4464 21.7529ZM9.62277 21.3913C9.5625 21.465 9.43527 21.4516 9.33482 21.3511C9.23437 21.2641 9.20759 21.1369 9.27455 21.0766C9.33482 21.0029 9.46205 21.0163 9.5625 21.1168C9.64955 21.2038 9.68303 21.3378 9.62277 21.3913ZM9.01339 20.7819C8.95312 20.8221 8.83928 20.7819 8.76562 20.6815C8.69196 20.5811 8.69196 20.4672 8.76562 20.4203C8.83928 20.3601 8.95312 20.4069 9.01339 20.5074C9.08705 20.6078 9.08705 20.7284 9.01339 20.7819ZM8.57812 20.1324C8.51786 20.1927 8.41741 20.1592 8.34375 20.0922C8.27009 20.0052 8.2567 19.9047 8.31696 19.8578C8.37723 19.7976 8.47768 19.8311 8.55134 19.898C8.625 19.9851 8.63839 20.0855 8.57812 20.1324ZM8.12946 19.6369C8.10268 19.6971 8.01562 19.7105 7.94196 19.6636C7.85491 19.6235 7.81473 19.5498 7.84152 19.4895C7.8683 19.4494 7.94196 19.4293 8.02902 19.4627C8.11607 19.5096 8.15625 19.5833 8.12946 19.6369Z" fill="#6B7280"/>
</svg>
