<svg width="1339" height="292" viewBox="0 0 1339 292" fill="none" xmlns="http://www.w3.org/2000/svg">
<g clip-path="url(#clip0_765_3593)">
<path d="M615.646 75.49C615.651 78.4665 615.074 81.4154 613.946 84.17L611.526 88.62L605.726 99.25L566.996 170.34L565.356 173.34C563.451 176.014 560.677 177.944 557.507 178.801C554.338 179.657 550.969 179.387 547.976 178.037C544.984 176.687 542.552 174.341 541.097 171.398C539.641 168.455 539.252 165.098 539.996 161.9L540.796 159.47L561.686 96.36L451.686 89.22L446.406 88.88C441.49 88.1554 436.77 86.4515 432.525 83.8694C428.28 81.2872 424.596 77.8793 421.692 73.8475C418.788 69.8157 416.723 65.242 415.619 60.3974C414.515 55.5529 414.394 50.536 415.264 45.644C416.135 40.7521 417.978 36.0845 420.685 31.9179C423.392 27.7513 426.908 24.1705 431.024 21.3875C435.14 18.6045 439.773 16.6759 444.648 15.7162C449.524 14.7564 454.542 14.7849 459.406 15.8L462.916 16.75L597.166 52.98L600.096 53.76C604.628 55.3116 608.562 58.2396 611.35 62.1352C614.138 66.0308 615.64 70.6997 615.646 75.49V75.49Z" fill="#FACC15"/>
<path d="M444.756 216.55C444.751 213.573 445.328 210.625 446.456 207.87L448.876 203.43L454.676 192.79L493.396 121.66L495.036 118.66C496.941 115.991 499.713 114.064 502.879 113.209C506.045 112.353 509.41 112.622 512.4 113.968C515.39 115.315 517.821 117.656 519.279 120.594C520.737 123.532 521.132 126.884 520.396 130.08L519.596 132.51L498.706 195.62L608.706 202.76L613.986 203.1C618.902 203.825 623.622 205.528 627.867 208.111C632.112 210.693 635.796 214.101 638.7 218.132C641.604 222.164 643.669 226.738 644.773 231.583C645.877 236.427 645.998 241.444 645.127 246.336C644.257 251.228 642.414 255.895 639.707 260.062C637 264.229 633.484 267.809 629.368 270.592C625.252 273.376 620.619 275.304 615.743 276.264C610.868 277.224 605.85 277.195 600.986 276.18L597.476 275.23L463.236 239.02L460.306 238.24C455.78 236.691 451.85 233.769 449.063 229.881C446.276 225.993 444.77 221.333 444.756 216.55Z" fill="#FACC15"/>
<path d="M70.7155 237.88C59.1489 237.88 47.6322 237.523 36.1655 236.81C32.5655 236.59 28.9222 236.273 25.2355 235.86C18.4076 235.084 12.1033 231.825 7.52286 226.703C2.94239 221.58 0.405637 214.952 0.395545 208.08V51.55C0.384177 44.6133 2.95539 37.9209 7.6083 32.7762C12.2612 27.6316 18.6626 24.4032 25.5655 23.72C27.7922 23.5 30.0555 23.3 32.3555 23.12C43.9222 22.2067 54.6789 21.75 64.6255 21.75C77.0184 21.6669 89.3959 22.6337 101.626 24.64C112.886 26.58 122.572 29.8833 130.686 34.55C138.501 38.9487 145.047 45.2942 149.686 52.97C154.252 60.5833 156.536 69.97 156.536 81.13C156.641 88.5334 154.826 95.8378 151.266 102.33C148.35 107.566 147.154 113.585 147.847 119.537C148.54 125.49 151.086 131.074 155.126 135.5C156.835 137.395 158.327 139.474 159.576 141.7C164.527 150.745 167.046 160.92 166.886 171.23C166.886 193.35 158.819 209.99 142.686 221.15C126.552 232.31 102.562 237.887 70.7155 237.88ZM46.7155 95.17C46.7155 98.3022 47.9598 101.306 50.1746 103.521C52.3894 105.736 55.3933 106.98 58.5255 106.98H69.7955C84.4155 106.98 94.8689 105.103 101.156 101.35C107.442 97.5967 110.589 91.56 110.596 83.24C110.596 74.72 107.346 68.72 100.846 65.24C94.3455 61.76 84.8089 60.0466 72.2355 60.1C68.1755 60.1 63.8122 60.1533 59.1455 60.26H58.1455C55.0657 60.341 52.14 61.6243 49.9944 63.8352C47.8489 66.0462 46.654 69.0091 46.6655 72.09L46.7155 95.17ZM46.7155 155.02V186.9C46.717 189.907 47.8741 192.798 49.9476 194.976C52.0211 197.154 54.8523 198.451 57.8555 198.6H57.9755C62.0355 198.8 66.5022 198.9 71.3755 198.9C85.5755 198.9 97.0389 196.87 105.766 192.81C114.492 188.75 118.856 181.243 118.856 170.29C118.856 160.55 115.189 153.6 107.856 149.44C100.522 145.28 90.0689 143.203 76.4955 143.21H58.4955C56.943 143.207 55.4051 143.511 53.9699 144.103C52.5347 144.696 51.2305 145.565 50.1317 146.662C49.0329 147.759 48.1612 149.062 47.5664 150.496C46.9717 151.93 46.6655 153.467 46.6655 155.02H46.7155Z" fill="#6B7280"/>
<path d="M251.526 28.75C251.526 37.07 248.839 43.6133 243.466 48.38C238.205 52.9809 231.454 55.5167 224.466 55.5167C217.477 55.5167 210.726 52.9809 205.466 48.38C200.086 43.62 197.396 37.0767 197.396 28.75C197.396 20.4233 200.062 13.88 205.396 9.12C210.656 4.51909 217.407 1.98325 224.396 1.98325C231.384 1.98325 238.135 4.51909 243.396 9.12C248.816 13.8933 251.526 20.4367 251.526 28.75ZM233.526 235.14H215.636C211.996 235.137 208.506 233.69 205.933 231.115C203.361 228.54 201.916 225.05 201.916 221.41V88.74C201.916 85.1012 203.361 81.6115 205.934 79.0385C208.507 76.4655 211.997 75.02 215.636 75.02H233.546C237.184 75.02 240.674 76.4655 243.247 79.0385C245.82 81.6115 247.266 85.1012 247.266 88.74V221.41C247.266 225.05 245.82 228.54 243.248 231.115C240.675 233.69 237.185 235.137 233.546 235.14H233.526Z" fill="#6B7280"/>
<path d="M300.396 33.2L317.116 30.55C319.163 30.2198 321.257 30.3382 323.254 30.8969C325.251 31.4557 327.103 32.4414 328.681 33.7861C330.26 35.1307 331.528 36.8021 332.397 38.6848C333.266 40.5674 333.716 42.6164 333.716 44.69V60.69C333.716 64.4879 335.224 68.1302 337.91 70.8158C340.595 73.5013 344.238 75.01 348.036 75.01H373.886C377.684 75.01 381.326 76.5187 384.011 79.2042C386.697 81.8897 388.206 85.5321 388.206 89.33V98.45C388.206 102.248 386.697 105.89 384.011 108.576C381.326 111.261 377.684 112.77 373.886 112.77H348.036C344.24 112.77 340.599 114.277 337.913 116.961C335.228 119.644 333.718 123.284 333.716 127.08V169.08C333.716 178.62 335.382 186.23 338.716 191.91C342.049 197.59 348.796 200.433 358.956 200.44C364.01 200.424 369.053 199.962 374.026 199.06H374.186C377.961 198.404 381.843 199.263 384.989 201.452C388.134 203.641 390.289 206.982 390.986 210.75L392.386 218.49C393.015 222.002 392.314 225.622 390.419 228.645C388.524 231.668 385.571 233.877 382.136 234.84C380.249 235.38 378.309 235.893 376.316 236.38C368.218 238.145 359.942 238.96 351.656 238.81C339.276 238.81 329.026 237.143 320.906 233.81C313.336 230.86 306.635 226.044 301.426 219.81C296.377 213.45 292.884 205.999 291.226 198.05C289.232 188.731 288.283 179.219 288.396 169.69V47.34C288.393 43.9427 289.599 40.6553 291.797 38.065C293.996 35.4747 297.043 33.7504 300.396 33.2V33.2Z" fill="#6B7280"/>
<path d="M658.056 155.08C657.917 143.522 659.827 132.032 663.696 121.14C667.213 111.27 672.758 102.246 679.976 94.65C687.343 87.0756 696.279 81.205 706.156 77.45C716.509 73.3967 728.279 71.37 741.466 71.37C746.946 71.37 752.679 71.6233 758.666 72.13C764.653 72.6367 770.539 73.3033 776.326 74.13C782.106 74.9433 787.636 75.9067 792.916 77.02C795.316 77.5267 797.589 78.0467 799.736 78.58C801.783 79.0774 803.603 80.2478 804.905 81.9033C806.207 83.5589 806.915 85.6038 806.916 87.71V282.05C806.916 284.543 805.926 286.934 804.163 288.697C802.4 290.46 800.009 291.45 797.516 291.45H770.966C769.731 291.451 768.507 291.209 767.366 290.737C766.224 290.266 765.187 289.573 764.313 288.7C763.439 287.827 762.745 286.791 762.272 285.65C761.799 284.508 761.556 283.285 761.556 282.05V244.44C761.555 242.995 761.22 241.569 760.579 240.274C759.937 238.979 759.005 237.849 757.856 236.972C756.707 236.096 755.371 235.496 753.952 235.22C752.533 234.944 751.07 234.999 749.676 235.38C748.376 235.73 747.056 236.06 745.726 236.38C739.926 237.625 734.008 238.235 728.076 238.2C705.349 238.2 687.996 230.743 676.016 215.83C664.036 200.917 658.049 180.667 658.056 155.08ZM704.326 156.3C704.326 185.32 715.083 199.83 736.596 199.83C741.273 199.829 745.929 199.213 750.446 198C752.114 197.563 753.76 197.043 755.376 196.44C757.186 195.775 758.75 194.571 759.855 192.991C760.96 191.41 761.553 189.529 761.556 187.6V119.8C761.558 117.463 760.684 115.21 759.107 113.484C757.53 111.759 755.364 110.687 753.036 110.48V110.48C749.586 110.18 745.826 110.03 741.776 110.03C729.396 110.03 720.063 114.24 713.776 122.66C707.489 131.08 704.339 142.293 704.326 156.3Z" fill="#6B7280"/>
<path d="M986.206 221.43C986.211 223.823 985.406 226.147 983.923 228.024C982.439 229.901 980.365 231.222 978.036 231.77C971.849 233.217 964.629 234.593 956.376 235.9C943.684 237.867 930.858 238.834 918.016 238.79C904.416 238.79 893.102 236.963 884.076 233.31C875.049 229.657 867.896 224.533 862.616 217.94C857.185 210.998 853.354 202.943 851.396 194.35C849.075 184.474 847.95 174.355 848.046 164.21V85.65C848.046 82.8308 849.166 80.127 851.159 78.1335C853.153 76.14 855.856 75.02 858.676 75.02H882.776C885.593 75.0227 888.294 76.1438 890.286 78.137C892.277 80.1302 893.396 82.8325 893.396 85.65V158.73C893.396 173.337 895.322 183.89 899.176 190.39C903.029 196.89 910.232 200.137 920.786 200.13C924.039 200.13 927.489 199.977 931.136 199.67C933.792 199.449 936.268 198.238 938.072 196.276C939.877 194.314 940.877 191.745 940.876 189.08V85.65C940.876 82.8308 941.996 80.127 943.989 78.1335C945.983 76.14 948.686 75.02 951.506 75.02H975.606C978.42 75.028 981.116 76.1514 983.103 78.1441C985.09 80.1367 986.206 82.836 986.206 85.65V221.43Z" fill="#6B7280"/>
<path d="M1086.4 70.76C1099.78 70.76 1110.94 72.28 1119.88 75.32C1128.81 78.36 1135.96 82.7233 1141.34 88.41C1146.8 94.2573 1150.72 101.371 1152.75 109.11C1155.07 117.952 1156.2 127.067 1156.1 136.21V227.83C1156.1 228.606 1155.84 229.36 1155.35 229.964C1154.86 230.567 1154.18 230.983 1153.42 231.14C1147.2 232.44 1139.06 233.923 1129.01 235.59C1117.44 237.523 1103.44 238.487 1087.01 238.48C1077.55 238.569 1068.12 237.654 1058.86 235.75C1051.08 234.189 1043.69 231.132 1037.09 226.75C1031.05 222.661 1026.22 217.038 1023.09 210.46C1019.84 203.76 1018.22 195.54 1018.22 185.8C1018.22 176.467 1020.09 168.553 1023.85 162.06C1027.47 155.707 1032.63 150.372 1038.87 146.55C1045.54 142.549 1052.85 139.719 1060.48 138.18C1068.79 136.44 1077.26 135.576 1085.75 135.6C1090.98 135.566 1096.21 135.819 1101.42 136.36C1104.06 136.65 1106.42 137 1108.48 137.36C1108.97 137.457 1109.47 137.445 1109.96 137.323C1110.45 137.202 1110.9 136.974 1111.28 136.657C1111.67 136.339 1111.98 135.94 1112.2 135.487C1112.41 135.035 1112.53 134.541 1112.53 134.04V134.04C1112.53 126.327 1110.19 120.14 1105.53 115.48C1100.86 110.82 1092.74 108.487 1081.18 108.48C1073.53 108.48 1065.9 109.041 1058.35 110.16C1053.02 110.911 1047.75 112.064 1042.6 113.61C1042.13 113.757 1041.64 113.802 1041.16 113.743C1040.68 113.683 1040.21 113.52 1039.8 113.265C1039.39 113.009 1039.03 112.668 1038.76 112.263C1038.49 111.858 1038.31 111.4 1038.24 110.92L1033.55 81.3C1033.42 80.4735 1033.6 79.6281 1034.05 78.9266C1034.51 78.2251 1035.21 77.7169 1036.02 77.5C1038.02 76.94 1040.35 76.36 1043.02 75.76C1046.97 74.8467 1051.28 74.0367 1055.95 73.33C1060.61 72.6233 1065.52 72.03 1070.68 71.55C1075.82 71.03 1081.06 70.7667 1086.4 70.76ZM1090.05 203.48C1094.51 203.48 1098.77 203.377 1102.83 203.17C1105.39 203.05 1107.64 202.883 1109.57 202.67C1110.39 202.579 1111.16 202.183 1111.71 201.561C1112.27 200.939 1112.57 200.133 1112.57 199.3V170.69C1112.57 169.886 1112.28 169.108 1111.76 168.495C1111.24 167.883 1110.52 167.476 1109.73 167.35C1108.23 167.11 1106.44 166.877 1104.35 166.65C1097.01 165.788 1089.6 165.838 1082.28 166.8C1078.84 167.214 1075.5 168.19 1072.39 169.69C1069.69 170.993 1067.38 172.987 1065.7 175.47C1063.99 178.203 1063.13 181.388 1063.26 184.61C1063.26 191.71 1065.64 196.63 1070.41 199.37C1075.17 202.11 1081.71 203.48 1090.01 203.48H1090.05Z" fill="#6B7280"/>
<path d="M1338.4 222.78C1338.39 224.882 1337.69 226.924 1336.39 228.577C1335.09 230.231 1333.28 231.401 1331.24 231.9C1329.08 232.427 1326.8 232.947 1324.4 233.46C1319.12 234.58 1313.59 235.547 1307.81 236.36C1302.02 237.16 1296.14 237.83 1290.15 238.36C1284.16 238.89 1278.43 239.12 1272.95 239.12C1259.75 239.12 1247.98 237.193 1237.64 233.34C1227.79 229.812 1218.85 224.146 1211.46 216.75C1204.2 209.297 1198.64 200.358 1195.18 190.55C1191.42 180.31 1189.54 168.793 1189.55 156C1189.39 144.102 1191.03 132.248 1194.42 120.84C1197.27 111.122 1202.03 102.07 1208.42 94.21C1214.45 86.9421 1222.11 81.2028 1230.79 77.46C1239.61 73.6067 1249.71 71.68 1261.08 71.68C1266.76 71.613 1272.44 72.2274 1277.98 73.51C1278.98 73.75 1279.98 74.02 1280.98 74.3C1282.37 74.7162 1283.85 74.8016 1285.28 74.5493C1286.71 74.297 1288.07 73.714 1289.24 72.8464C1290.41 71.9789 1291.36 70.8507 1292.02 69.5512C1292.68 68.2518 1293.03 66.8168 1293.04 65.36V14.22C1293.04 11.9886 1293.83 9.8308 1295.28 8.13247C1296.73 6.43414 1298.73 5.30607 1300.94 4.95L1327.52 0.669996C1328.86 0.454341 1330.23 0.532533 1331.54 0.899169C1332.85 1.26581 1334.06 1.91215 1335.09 2.79355C1336.13 3.67496 1336.96 4.77042 1337.53 6.00426C1338.1 7.23811 1338.39 8.58094 1338.4 9.94V222.78ZM1235.82 153.86C1235.82 167.86 1238.96 179.123 1245.25 187.65C1251.53 196.177 1260.87 200.44 1273.25 200.44C1277.3 200.44 1281.06 200.28 1284.51 199.98C1286.83 199.773 1289 198.702 1290.57 196.979C1292.15 195.256 1293.02 193.006 1293.03 190.67V122.24C1293.02 120.315 1292.43 118.437 1291.32 116.859C1290.22 115.28 1288.66 114.077 1286.86 113.41C1285.34 112.85 1283.7 112.33 1281.92 111.85C1277.4 110.644 1272.74 110.032 1268.07 110.03C1246.57 110.03 1235.82 124.64 1235.82 153.86Z" fill="#6B7280"/>
</g>
<defs>
<clipPath id="clip0_765_3593">
<rect width="1338" height="290.9" fill="white" transform="translate(0.395508 0.549988)"/>
</clipPath>
</defs>
</svg>
